<svg width="40" height="40" viewBox="0 0 40 40" fill="none" xmlns="http://www.w3.org/2000/svg">
<g filter="url(#filter0_d_614_1786)">
<circle cx="20" cy="18" r="16" fill="#E1EEFF"/>
</g>
<path d="M22.1875 16.25H23.2812C23.5713 16.25 23.8495 16.3652 24.0546 16.5704C24.2598 16.7755 24.375 17.0537 24.375 17.3437V22.5937C24.375 22.8838 24.2598 23.162 24.0546 23.3671C23.8495 23.5723 23.5713 23.6875 23.2812 23.6875H16.7187C16.4287 23.6875 16.1505 23.5723 15.9454 23.3671C15.7402 23.162 15.625 22.8838 15.625 22.5937V17.3437C15.625 17.0537 15.7402 16.7755 15.9454 16.5704C16.1505 16.3652 16.4287 16.25 16.7187 16.25H17.8125M22.1875 14.5L20 12.3125M20 12.3125L17.8125 14.5M20 12.3125V19.7773" stroke="#2481FB" stroke-width="0.8" stroke-linecap="round" stroke-linejoin="round"/>
<defs>
<filter id="filter0_d_614_1786" x="0" y="0" width="40" height="40" filterUnits="userSpaceOnUse" color-interpolation-filters="sRGB">
<feFlood flood-opacity="0" result="BackgroundImageFix"/>
<feColorMatrix in="SourceAlpha" type="matrix" values="0 0 0 0 0 0 0 0 0 0 0 0 0 0 0 0 0 0 127 0" result="hardAlpha"/>
<feOffset dy="2"/>
<feGaussianBlur stdDeviation="2"/>
<feComposite in2="hardAlpha" operator="out"/>
<feColorMatrix type="matrix" values="0 0 0 0 0.141176 0 0 0 0 0.505882 0 0 0 0 0.984314 0 0 0 0.14 0"/>
<feBlend mode="normal" in2="BackgroundImageFix" result="effect1_dropShadow_614_1786"/>
<feBlend mode="normal" in="SourceGraphic" in2="effect1_dropShadow_614_1786" result="shape"/>
</filter>
</defs>
</svg>
