<svg width="24" height="10" viewBox="0 0 24 10" fill="none" xmlns="http://www.w3.org/2000/svg">
<path d="M0.75 9.004H23.25M17.931 9.004H6.069L4.527 2.035C4.49313 1.88394 4.49038 1.72757 4.51892 1.57542C4.54746 1.42326 4.60669 1.27851 4.693 1.15C4.77128 1.02965 4.87781 0.930285 5.00331 0.860563C5.12881 0.790842 5.26946 0.752884 5.413 0.75H18.587C18.7305 0.752884 18.8712 0.790842 18.9967 0.860563C19.1222 0.930285 19.2287 1.02965 19.307 1.15C19.3933 1.27851 19.4525 1.42326 19.4811 1.57542C19.5096 1.72757 19.5069 1.88394 19.473 2.035L17.931 9.004Z" stroke="black" stroke-width="1.5" stroke-linecap="round" stroke-linejoin="round"/>
</svg>
