<svg width="20" height="21" viewBox="0 0 20 21" fill="none" xmlns="http://www.w3.org/2000/svg">
<path d="M0 19V2C0 1.46957 0.210714 0.960859 0.585786 0.585786C0.960859 0.210714 1.46957 0 2 0H14C14.5304 0 15.0391 0.210714 15.4142 0.585786C15.7893 0.960859 16 1.46957 16 2V19C16 19.1733 15.979 19.34 15.937 19.5H18C18.1326 19.5 18.2598 19.4473 18.3536 19.3536C18.4473 19.2598 18.5 19.1326 18.5 19V11C18.5 10.9224 18.4819 10.8458 18.4472 10.7764C18.4125 10.707 18.3621 10.6466 18.3 10.6L17.8 10.225C17.6409 10.1057 17.5357 9.92798 17.5075 9.73107C17.4794 9.53415 17.5307 9.33413 17.65 9.175C17.7693 9.01587 17.947 8.91067 18.1439 8.88254C18.3408 8.85441 18.5409 8.90565 18.7 9.025L19.2 9.4C19.704 9.778 20 10.37 20 11V19C20 19.5304 19.7893 20.0391 19.4142 20.4142C19.0391 20.7893 18.5304 21 18 21H14.438C14.3823 20.9986 14.3267 20.9926 14.272 20.982C14.1827 20.994 14.092 21 14 21H10.25C10.0511 21 9.86032 20.921 9.71967 20.7803C9.57902 20.6397 9.5 20.4489 9.5 20.25V18H6.5V20.25C6.5 20.4489 6.42098 20.6397 6.28033 20.7803C6.13968 20.921 5.94891 21 5.75 21H2C1.46957 21 0.960859 20.7893 0.585786 20.4142C0.210714 20.0391 0 19.5304 0 19ZM2 19.5H5V17.25C5 17.0511 5.07902 16.8603 5.21967 16.7197C5.36032 16.579 5.55109 16.5 5.75 16.5H10.25C10.4489 16.5 10.6397 16.579 10.7803 16.7197C10.921 16.8603 11 17.0511 11 17.25V19.5H14C14.1326 19.5 14.2598 19.4473 14.3536 19.3536C14.4473 19.2598 14.5 19.1326 14.5 19V2C14.5 1.86739 14.4473 1.74021 14.3536 1.64645C14.2598 1.55268 14.1326 1.5 14 1.5H2C1.86739 1.5 1.74021 1.55268 1.64645 1.64645C1.55268 1.74021 1.5 1.86739 1.5 2V19C1.5 19.1326 1.55268 19.2598 1.64645 19.3536C1.74021 19.4473 1.86739 19.5 2 19.5Z" fill="black"/>
</svg>
