<svg width="20" height="21" viewBox="0 0 20 21" fill="none" xmlns="http://www.w3.org/2000/svg">
<g clip-path="url(#clip0_5_141)">
<path d="M0 10.5C0 4.70101 4.47716 0 10 0C15.5229 0 20 4.70101 20 10.5C20 16.299 15.5229 21 10 21C4.47716 21 0 16.299 0 10.5Z" fill="#3B5998"/>
<path d="M11.0417 16.6738V10.9612H12.5435L12.7425 8.99264H11.0417L11.0442 8.00735C11.0442 7.49391 11.0907 7.2188 11.793 7.2188H12.7319V5.25H11.2298C9.42566 5.25 8.79063 6.20497 8.79063 7.81094V8.99286H7.66602V10.9614H8.79063V16.6738H11.0417Z" fill="white"/>
</g>
<defs>
<clipPath id="clip0_5_141">
<rect width="20" height="21" fill="white"/>
</clipPath>
</defs>
</svg>
