<svg width="15" height="15" viewBox="0 0 15 15" fill="none" xmlns="http://www.w3.org/2000/svg">
<path d="M10.7002 0.699951H4.03353C2.19258 0.699951 0.700195 2.19234 0.700195 4.03328V10.7C0.700195 12.5409 2.19258 14.0333 4.03353 14.0333H10.7002C12.5411 14.0333 14.0335 12.5409 14.0335 10.7V4.03328C14.0335 2.19234 12.5411 0.699951 10.7002 0.699951Z" stroke="#AAAAAA" stroke-width="1.4" stroke-linecap="round" stroke-linejoin="round"/>
<path d="M11.034 3.69995H11.0407M10.034 6.94662C10.1163 7.50145 10.0215 8.0681 9.76316 8.56596C9.50482 9.06383 9.09608 9.46756 8.59507 9.71973C8.09406 9.97191 7.52628 10.0597 6.97251 9.97057C6.41873 9.88146 5.90716 9.62001 5.51054 9.22339C5.11393 8.82678 4.85247 8.3152 4.76336 7.76143C4.67425 7.20765 4.76203 6.63988 5.0142 6.13887C5.26638 5.63785 5.67011 5.22911 6.16797 4.97078C6.66584 4.71245 7.23249 4.61768 7.78732 4.69995C8.35327 4.78387 8.87722 5.04759 9.28178 5.45216C9.68634 5.85672 9.95006 6.38067 10.034 6.94662Z" stroke="#AAAAAA" stroke-width="1.4" stroke-linecap="round" stroke-linejoin="round"/>
</svg>
