<svg width="116" height="168" viewBox="0 0 116 168" fill="none" xmlns="http://www.w3.org/2000/svg">
<g clip-path="url(#clip0_5_67)">
<path d="M88.7587 68.4413C90.6642 68.4413 92.2089 66.904 92.2089 65.0077C92.2089 63.1115 90.6642 61.5742 88.7587 61.5742C86.8533 61.5742 85.3086 63.1115 85.3086 65.0077C85.3086 66.904 86.8533 68.4413 88.7587 68.4413Z" fill="#9FDBE9"/>
<path d="M87.0337 125.437C87.9864 125.437 88.7587 124.669 88.7587 123.721C88.7587 122.773 87.9864 122.004 87.0337 122.004C86.0809 122.004 85.3086 122.773 85.3086 123.721C85.3086 124.669 86.0809 125.437 87.0337 125.437Z" fill="#EECDEF"/>
<path d="M46.7837 21.7474C49.8959 21.7474 52.4189 19.2366 52.4189 16.1393C52.4189 13.0421 49.8959 10.5312 46.7837 10.5312C43.6714 10.5312 41.1484 13.0421 41.1484 16.1393C41.1484 19.2366 43.6714 21.7474 46.7837 21.7474Z" fill="#BEE2AE"/>
<path d="M108.194 7.096C109.528 7.096 110.61 6.01993 110.61 4.69253C110.61 3.36513 109.528 2.28906 108.194 2.28906C106.861 2.28906 105.779 3.36513 105.779 4.69253C105.779 6.01993 106.861 7.096 108.194 7.096Z" fill="#F7BFBF"/>
<path opacity="0.4" d="M76.7155 11.7831L-33.2474 94.8553C-41.8632 101.364 -43.5457 113.591 -37.0053 122.166C-30.465 130.74 -18.1785 132.414 -9.56267 125.906L100.4 42.8333C109.016 36.3244 110.698 24.0971 104.158 15.5228C97.6178 6.94856 85.3313 5.2742 76.7155 11.7831Z" fill="#9777FA"/>
<path opacity="0.4" d="M68.1462 76.0414L-17.9587 141.09C-25.0436 146.442 -26.4271 156.497 -21.0489 163.548L-21.0488 163.548C-15.6705 170.599 -5.56706 171.976 1.5179 166.623L87.6228 101.575C94.7077 96.2224 96.0912 86.1676 90.7129 79.1167C85.3346 72.0659 75.2312 70.689 68.1462 76.0414Z" fill="#5192FF"/>
<path opacity="0.5" d="M63.6315 138.218L1.41065 185.223C-4.46304 189.661 -5.61005 197.996 -1.15127 203.842C3.3075 209.687 11.6836 210.829 17.5573 206.391L79.7782 159.386C85.6519 154.949 86.7989 146.613 82.3401 140.768C77.8813 134.922 69.5052 133.781 63.6315 138.218Z" fill="#FFC48D" fill-opacity="0.8"/>
</g>
<defs>
<clipPath id="clip0_5_67">
<rect width="116" height="168" fill="white"/>
</clipPath>
</defs>
</svg>
