<svg width="617" height="140" viewBox="0 0 617 140" fill="none" xmlns="http://www.w3.org/2000/svg">
<g clip-path="url(#clip0_5_75)">
<path d="M167.146 228.946C207.927 220.069 233.791 179.814 224.914 139.032C216.038 98.2511 175.782 72.3872 135.001 81.2637C94.2199 90.1401 68.356 130.396 77.2324 171.177C86.1089 211.958 126.364 237.822 167.146 228.946Z" stroke="#DED3FF" stroke-width="2"/>
<path d="M160.292 252.086C201.073 243.21 226.937 202.954 218.061 162.173C209.184 121.392 168.929 95.5278 128.148 104.404C87.3664 113.281 61.5024 153.536 70.3789 194.318C79.2554 235.099 119.511 260.963 160.292 252.086Z" stroke="#DED3FF" stroke-width="2"/>
<path d="M153.118 266.758C193.9 257.882 219.764 217.626 210.887 176.845C202.011 136.063 161.755 110.2 120.974 119.076C80.1926 127.952 54.3286 168.208 63.2051 208.989C72.0815 249.771 112.337 275.634 153.118 266.758Z" stroke="#DED3FF" stroke-width="2"/>
<path d="M137.134 278.774C177.915 269.897 203.779 229.642 194.903 188.861C186.026 148.079 145.771 122.215 104.989 131.092C64.2082 139.968 38.3442 180.224 47.2207 221.005C56.0972 261.786 96.3527 287.65 137.134 278.774Z" stroke="#DED3FF" stroke-width="2"/>
<path d="M117.821 290.907C158.603 282.03 184.467 241.775 175.59 200.993C166.714 160.212 126.458 134.348 85.6769 143.225C44.8957 152.101 19.0317 192.357 27.9082 233.138C36.7847 273.919 77.0402 299.783 117.821 290.907Z" stroke="#DED3FF" stroke-width="2"/>
<path opacity="0.2" d="M585 204C620.346 204 649 175.346 649 140C649 104.654 620.346 76 585 76C549.654 76 521 104.654 521 140C521 175.346 549.654 204 585 204Z" stroke="#9777FA" stroke-width="50"/>
<path opacity="0.15" d="M501.5 43C510.613 43 518 35.6127 518 26.5C518 17.3873 510.613 10 501.5 10C492.387 10 485 17.3873 485 26.5C485 35.6127 492.387 43 501.5 43Z" stroke="#5192FF" stroke-width="20"/>
</g>
<defs>
<clipPath id="clip0_5_75">
<rect width="617" height="140" fill="white"/>
</clipPath>
</defs>
</svg>
