<svg width="158" height="111" viewBox="0 0 158 111" fill="none" xmlns="http://www.w3.org/2000/svg">
<path d="M246.062 -15.9375C246.062 -0.178875 242.959 15.4254 236.928 29.9845C230.897 44.5436 222.058 57.7723 210.915 68.9153C199.772 80.0583 186.544 88.8975 171.985 94.928C157.425 100.959 141.821 104.063 126.062 104.062C110.304 104.062 94.6996 100.959 80.1405 94.928C65.5814 88.8975 52.3527 80.0583 41.2097 68.9153C30.0667 57.7723 21.2275 44.5436 15.197 29.9845C9.16639 15.4254 6.0625 -0.178886 6.0625 -15.9375L41.2875 -15.9375C41.2875 -4.80469 43.4803 6.21911 47.7406 16.5045C52.0009 26.7899 58.2454 36.1354 66.1175 44.0075C73.9896 51.8796 83.3351 58.1241 93.6205 62.3844C103.906 66.6447 114.93 68.8375 126.062 68.8375C137.195 68.8375 148.219 66.6447 158.504 62.3844C168.79 58.1241 178.135 51.8796 186.007 44.0075C193.88 36.1354 200.124 26.7899 204.384 16.5045C208.645 6.21911 210.838 -4.80469 210.838 -15.9375L246.062 -15.9375Z" fill="#E7E2FC"/>
<path d="M6.22329 -9.71357C5.32034 -27.1031 8.21271 -44.4808 14.6996 -60.6403C21.1865 -76.7998 31.1125 -91.354 43.7886 -103.292C56.4646 -115.231 71.587 -124.268 88.106 -129.775C104.625 -135.283 122.145 -137.13 139.449 -135.187C156.753 -133.245 173.427 -127.559 188.314 -118.526C203.2 -109.493 215.943 -97.3281 225.656 -82.8762C235.37 -68.4243 241.822 -52.0315 244.564 -34.8359C247.307 -17.6403 246.274 -0.0538766 241.538 16.7026L207.641 7.12173C210.987 -4.716 211.716 -17.1401 209.779 -29.2881C207.841 -41.4361 203.283 -53.0168 196.421 -63.2265C189.559 -73.4362 180.557 -82.0301 170.04 -88.4117C159.524 -94.7933 147.744 -98.8097 135.519 -100.182C123.294 -101.554 110.918 -100.25 99.2476 -96.3588C87.5777 -92.4679 76.8943 -86.0838 67.9392 -77.6498C58.9841 -69.2157 51.9718 -58.9338 47.3891 -47.5178C42.8063 -36.1017 40.763 -23.8251 41.4009 -11.5402L6.22329 -9.71357Z" fill="#E7E2FC"/>
</svg>
