<svg width="152" height="17" viewBox="0 0 152 17" fill="none" xmlns="http://www.w3.org/2000/svg">
<path d="M0.161283 -9.71357C-0.741671 -27.1031 2.1507 -44.4808 8.6376 -60.6403C15.1245 -76.7998 25.0505 -91.354 37.7266 -103.292C50.4026 -115.231 65.525 -124.268 82.044 -129.775C98.5629 -135.283 116.083 -137.13 133.387 -135.187C150.691 -133.245 167.365 -127.559 182.252 -118.526C197.138 -109.493 209.881 -97.3281 219.594 -82.8762C229.308 -68.4243 235.76 -52.0315 238.502 -34.8359C241.245 -17.6403 240.212 -0.0538766 235.476 16.7026L201.579 7.12173C204.925 -4.716 205.654 -17.1401 203.717 -29.2881C201.779 -41.4361 197.221 -53.0168 190.359 -63.2265C183.497 -73.4362 174.495 -82.0301 163.978 -88.4117C153.462 -94.7933 141.682 -98.8097 129.457 -100.182C117.232 -101.554 104.856 -100.25 93.1856 -96.3588C81.5156 -92.4679 70.8323 -86.0838 61.8772 -77.6498C52.9221 -69.2157 45.9098 -58.9338 41.327 -47.5178C36.7443 -36.1017 34.701 -23.8251 35.3389 -11.5402L0.161283 -9.71357Z" fill="#E7E2FC"/>
</svg>
