<svg width="152" height="105" viewBox="0 0 152 105" fill="none" xmlns="http://www.w3.org/2000/svg">
<path d="M240 -15.9375C240 -0.178875 236.896 15.4254 230.866 29.9845C224.835 44.5436 215.996 57.7723 204.853 68.9153C193.71 80.0583 180.481 88.8975 165.922 94.928C151.363 100.959 135.759 104.063 120 104.062C104.241 104.062 88.6371 100.959 74.078 94.928C59.5189 88.8975 46.2902 80.0583 35.1472 68.9153C24.0042 57.7723 15.165 44.5436 9.13445 29.9845C3.10389 15.4254 -1.37766e-06 -0.178886 0 -15.9375L35.225 -15.9375C35.225 -4.80469 37.4178 6.21911 41.6781 16.5045C45.9384 26.7899 52.1829 36.1354 60.055 44.0075C67.9271 51.8796 77.2726 58.1241 87.558 62.3844C97.8434 66.6447 108.867 68.8375 120 68.8375C131.133 68.8375 142.157 66.6447 152.442 62.3844C162.727 58.1241 172.073 51.8796 179.945 44.0075C187.817 36.1354 194.062 26.7899 198.322 16.5045C202.582 6.21911 204.775 -4.80469 204.775 -15.9375L240 -15.9375Z" fill="#E7E2FC"/>
</svg>
