<svg width="152" height="17" viewBox="0 0 152 17" fill="none" xmlns="http://www.w3.org/2000/svg">
<path d="M0.161283 -9.71552C-0.741671 -27.105 2.1507 -44.4827 8.6376 -60.6422C15.1245 -76.8017 25.0505 -91.3559 37.7266 -103.294C50.4026 -115.233 65.525 -124.27 82.044 -129.777C98.5629 -135.285 116.083 -137.132 133.387 -135.189C150.691 -133.247 167.365 -127.561 182.252 -118.528C197.138 -109.495 209.881 -97.33 219.594 -82.8781C229.308 -68.4262 235.76 -52.0335 238.502 -34.8379C241.245 -17.6423 240.212 -0.0558297 235.476 16.7006L201.579 7.11978C204.925 -4.71796 205.654 -17.1421 203.717 -29.29C201.779 -41.438 197.221 -53.0188 190.359 -63.2285C183.497 -73.4381 174.495 -82.0321 163.978 -88.4137C153.462 -94.7953 141.682 -98.8117 129.457 -100.184C117.232 -101.556 104.856 -100.252 93.1856 -96.3608C81.5156 -92.4698 70.8323 -86.0858 61.8772 -77.6517C52.9221 -69.2177 45.9098 -58.9357 41.327 -47.5197C36.7443 -36.1037 34.701 -23.8271 35.3389 -11.5421L0.161283 -9.71552Z" fill="#E7E2FC"/>
</svg>
