<svg width="8" height="8" viewBox="0 0 8 8" fill="none" xmlns="http://www.w3.org/2000/svg">
<path d="M7.00469 0.699951H7.01135M6.00469 3.94662C6.08696 4.50145 5.99219 5.0681 5.73386 5.56596C5.47553 6.06383 5.06679 6.46756 4.56577 6.71973C4.06476 6.97191 3.49699 7.05968 2.94321 6.97057C2.38944 6.88146 1.87786 6.62001 1.48125 6.22339C1.08463 5.82678 0.823176 5.3152 0.734066 4.76143C0.644956 4.20765 0.732731 3.63988 0.984905 3.13887C1.23708 2.63785 1.64081 2.22911 2.13868 1.97078C2.63654 1.71245 3.20319 1.61768 3.75802 1.69995C4.32397 1.78387 4.84792 2.04759 5.25248 2.45216C5.65705 2.85672 5.92076 3.38067 6.00469 3.94662Z" stroke="#AAAAAA" stroke-width="1.4" stroke-linecap="round" stroke-linejoin="round"/>
</svg>
