<svg width="14" height="14" viewBox="0 0 14 14" fill="none" xmlns="http://www.w3.org/2000/svg">
<path d="M3.61136 12.7487C3.54596 12.7956 3.46889 12.8236 3.38864 12.8295C3.30838 12.8354 3.22805 12.8191 3.15647 12.7823C3.0849 12.7455 3.02486 12.6897 2.98295 12.621C2.94104 12.5523 2.9189 12.4734 2.91895 12.3929V3.64583C2.91895 3.14303 3.11868 2.66081 3.47422 2.30528C3.82976 1.94974 4.31197 1.75 4.81478 1.75H9.18861C9.69142 1.75 10.1736 1.94974 10.5292 2.30528C10.8847 2.66081 11.0844 3.14303 11.0844 3.64583V12.3935C11.0845 12.474 11.0623 12.553 11.0203 12.6217C10.9783 12.6904 10.9182 12.7462 10.8465 12.7829C10.7749 12.8197 10.6945 12.8359 10.6142 12.8299C10.5339 12.8238 10.4568 12.7958 10.3914 12.7487L7.00228 10.3098L3.61136 12.7487ZM10.21 3.64583C10.21 3.37509 10.1025 3.11544 9.91103 2.924C9.71959 2.73255 9.45994 2.625 9.1892 2.625H4.81478C4.54404 2.625 4.28438 2.73255 4.09294 2.924C3.9015 3.11544 3.79395 3.37509 3.79395 3.64583V11.5395L6.7462 9.41558C6.82063 9.36203 6.91 9.33323 7.0017 9.33323C7.09339 9.33323 7.18276 9.36203 7.2572 9.41558L10.2094 11.5395L10.21 3.64583Z" fill="#2481FB"/>
</svg>
