<svg width="10" height="13" viewBox="0 0 10 13" fill="none" xmlns="http://www.w3.org/2000/svg">
<path d="M6.9624 4.33752H8.05615C8.34623 4.33752 8.62443 4.45276 8.82955 4.65788C9.03467 4.86299 9.1499 5.14119 9.1499 5.43127V10.6813C9.1499 10.9714 9.03467 11.2496 8.82955 11.4547C8.62443 11.6598 8.34623 11.775 8.05615 11.775H1.49365C1.20357 11.775 0.925372 11.6598 0.720254 11.4547C0.515136 11.2496 0.399902 10.9714 0.399902 10.6813V5.43127C0.399902 5.14119 0.515136 4.86299 0.720254 4.65788C0.925372 4.45276 1.20357 4.33752 1.49365 4.33752H2.5874M6.9624 2.58752L4.7749 0.400024M4.7749 0.400024L2.5874 2.58752M4.7749 0.400024V7.86487" stroke="#2481FB" stroke-width="0.8" stroke-linecap="round" stroke-linejoin="round"/>
</svg>
