<svg width="113" height="113" viewBox="0 0 113 113" fill="none" xmlns="http://www.w3.org/2000/svg">
<path fill-rule="evenodd" clip-rule="evenodd" d="M61.875 0H16.875C12.3995 0 8.10725 1.7779 4.94257 4.94257C1.7779 8.10725 0 12.3995 0 16.875V75.9375C0 76.425 0.0600004 76.8937 0.18 77.3437C0.0609323 77.803 0.000451664 78.2755 0 78.75V95.625C0 100.101 1.7779 104.393 4.94257 107.557C8.10725 110.722 12.3995 112.5 16.875 112.5H95.625C100.101 112.5 104.393 110.722 107.557 107.557C110.722 104.393 112.5 100.101 112.5 95.625V56.25C112.5 55.7755 112.439 55.303 112.32 54.8437C112.439 54.3845 112.5 53.912 112.5 53.4375V50.625H101.25V50.715C77.0794 51.4969 59.625 57.3187 47.3625 65.4694C52.0087 67.1175 57.2062 69.4631 62.3025 72.5344C70.1719 77.2594 78.1706 83.8969 83.5537 92.6887C83.9393 93.3188 84.197 94.0187 84.3122 94.7484C84.4273 95.4781 84.3975 96.2233 84.2246 96.9415C84.0517 97.6597 83.7391 98.3368 83.3045 98.9342C82.8699 99.5316 82.322 100.038 81.6919 100.423C81.0618 100.809 80.3619 101.066 79.6322 101.182C78.9025 101.297 78.1573 101.267 77.4391 101.094C76.7209 100.921 76.0437 100.608 75.4464 100.174C74.849 99.7393 74.3431 99.1913 73.9575 98.5612C69.8175 91.7943 63.3937 86.31 56.5087 82.1756C49.635 78.0469 42.6431 75.4706 37.7944 74.3456C30.9637 72.7876 23.9701 72.0586 16.965 72.1744H16.8412C14.8837 72.2044 13.02 72.2887 11.25 72.4275V16.875C11.25 15.3832 11.8426 13.9524 12.8975 12.8975C13.9524 11.8426 15.3832 11.25 16.875 11.25H61.875V0ZM36.5625 22.5C33.4971 22.53 30.5126 23.4869 28.0012 25.245C24.795 27.5512 22.5 31.3537 22.5 36.5625C22.5 41.7712 24.795 45.5681 28.0012 47.8744C30.5071 49.6441 33.4948 50.604 36.5625 50.625C38.8687 50.625 42.2044 49.9781 45.1237 47.8744C48.33 45.5681 50.625 41.7712 50.625 36.5625C50.625 31.3537 48.33 27.5569 45.1237 25.245C42.6172 23.4773 39.6296 22.5193 36.5625 22.5Z" fill="#959595"/>
</svg>
