<svg width="12" height="14" viewBox="0 0 12 14" fill="none" xmlns="http://www.w3.org/2000/svg">
<path d="M10.75 12.75C10.1237 12.0418 9.35402 11.4748 8.49204 11.0864C7.63007 10.698 6.69543 10.4972 5.75 10.4972C4.80457 10.4972 3.86993 10.698 3.00796 11.0864C2.14598 11.4748 1.37634 12.0418 0.75 12.75M1.625 4.875C1.625 5.96902 2.0596 7.01823 2.83318 7.79182C3.60677 8.5654 4.65598 9 5.75 9C6.84402 9 7.89323 8.5654 8.66682 7.79182C9.4404 7.01823 9.875 5.96902 9.875 4.875C9.875 3.78098 9.4404 2.73177 8.66682 1.95818C7.89323 1.1846 6.84402 0.75 5.75 0.75C4.65598 0.75 3.60677 1.1846 2.83318 1.95818C2.0596 2.73177 1.625 3.78098 1.625 4.875Z" stroke="#0068CE" stroke-width="1.5" stroke-linecap="round" stroke-linejoin="round"/>
</svg>
