<svg width="10" height="19" viewBox="0 0 10 19" fill="none" xmlns="http://www.w3.org/2000/svg">
<path d="M0.75 0.75C1.38887 1.41248 2.15469 1.93943 3.00173 2.29938C3.84877 2.65933 4.75965 2.8449 5.68 2.845C6.613 2.845 7.536 2.655 8.393 2.287M2.805 16.72C2.805 17.1178 2.96304 17.4994 3.24434 17.7807C3.52564 18.062 3.90718 18.22 4.305 18.22C4.70283 18.22 5.08436 18.062 5.36566 17.7807C5.64697 17.4994 5.805 17.1178 5.805 16.72C5.805 16.3222 5.64697 15.9406 5.36566 15.6593C5.08436 15.378 4.70283 15.22 4.305 15.22C3.90718 15.22 3.52564 15.378 3.24434 15.6593C2.96304 15.9406 2.805 16.3222 2.805 16.72Z" stroke="#0068CE" stroke-width="1.5" stroke-linecap="round" stroke-linejoin="round"/>
</svg>
