<svg width="9" height="9" viewBox="0 0 9 9" fill="none" xmlns="http://www.w3.org/2000/svg">
<path d="M0.75 7C0.551088 7 0.360322 7.07902 0.21967 7.21967C0.0790175 7.36032 0 7.55109 0 7.75C0 7.94891 0.0790175 8.13968 0.21967 8.28033C0.360322 8.42098 0.551088 8.5 0.75 8.5H1.25C1.44891 8.5 1.63968 8.42098 1.78033 8.28033C1.92098 8.13968 2 7.94891 2 7.75C2 7.55109 1.92098 7.36032 1.78033 7.21967C1.63968 7.07902 1.44891 7 1.25 7H0.75ZM0 4.25C0 4.05109 0.0790175 3.86032 0.21967 3.71967C0.360322 3.57902 0.551088 3.5 0.75 3.5H1.25C1.44891 3.5 1.63968 3.57902 1.78033 3.71967C1.92098 3.86032 2 4.05109 2 4.25C2 4.44891 1.92098 4.63968 1.78033 4.78033C1.63968 4.92098 1.44891 5 1.25 5H0.75C0.551088 5 0.360322 4.92098 0.21967 4.78033C0.0790175 4.63968 0 4.44891 0 4.25ZM0.75 0C0.551088 0 0.360322 0.0790175 0.21967 0.21967C0.0790175 0.360322 0 0.551088 0 0.75C0 0.948912 0.0790175 1.13968 0.21967 1.28033C0.360322 1.42098 0.551088 1.5 0.75 1.5H1.25C1.44891 1.5 1.63968 1.42098 1.78033 1.28033C1.92098 1.13968 2 0.948912 2 0.75C2 0.551088 1.92098 0.360322 1.78033 0.21967C1.63968 0.0790175 1.44891 0 1.25 0H0.75ZM3.5 7.75C3.5 7.55109 3.57902 7.36032 3.71967 7.21967C3.86032 7.07902 4.05109 7 4.25 7H4.75C4.94891 7 5.13968 7.07902 5.28033 7.21967C5.42098 7.36032 5.5 7.55109 5.5 7.75C5.5 7.94891 5.42098 8.13968 5.28033 8.28033C5.13968 8.42098 4.94891 8.5 4.75 8.5H4.25C4.05109 8.5 3.86032 8.42098 3.71967 8.28033C3.57902 8.13968 3.5 7.94891 3.5 7.75ZM4.25 3.5C4.05109 3.5 3.86032 3.57902 3.71967 3.71967C3.57902 3.86032 3.5 4.05109 3.5 4.25C3.5 4.44891 3.57902 4.63968 3.71967 4.78033C3.86032 4.92098 4.05109 5 4.25 5H4.75C4.94891 5 5.13968 4.92098 5.28033 4.78033C5.42098 4.63968 5.5 4.44891 5.5 4.25C5.5 4.05109 5.42098 3.86032 5.28033 3.71967C5.13968 3.57902 4.94891 3.5 4.75 3.5H4.25ZM3.5 0.75C3.5 0.551088 3.57902 0.360322 3.71967 0.21967C3.86032 0.0790175 4.05109 0 4.25 0H4.75C4.94891 0 5.13968 0.0790175 5.28033 0.21967C5.42098 0.360322 5.5 0.551088 5.5 0.75C5.5 0.948912 5.42098 1.13968 5.28033 1.28033C5.13968 1.42098 4.94891 1.5 4.75 1.5H4.25C4.05109 1.5 3.86032 1.42098 3.71967 1.28033C3.57902 1.13968 3.5 0.948912 3.5 0.75ZM7.75 7C7.55109 7 7.36032 7.07902 7.21967 7.21967C7.07902 7.36032 7 7.55109 7 7.75C7 7.94891 7.07902 8.13968 7.21967 8.28033C7.36032 8.42098 7.55109 8.5 7.75 8.5H8.25C8.44891 8.5 8.63968 8.42098 8.78033 8.28033C8.92098 8.13968 9 7.94891 9 7.75C9 7.55109 8.92098 7.36032 8.78033 7.21967C8.63968 7.07902 8.44891 7 8.25 7H7.75ZM7 4.25C7 4.05109 7.07902 3.86032 7.21967 3.71967C7.36032 3.57902 7.55109 3.5 7.75 3.5H8.25C8.44891 3.5 8.63968 3.57902 8.78033 3.71967C8.92098 3.86032 9 4.05109 9 4.25C9 4.44891 8.92098 4.63968 8.78033 4.78033C8.63968 4.92098 8.44891 5 8.25 5H7.75C7.55109 5 7.36032 4.92098 7.21967 4.78033C7.07902 4.63968 7 4.44891 7 4.25ZM7.75 0C7.55109 0 7.36032 0.0790175 7.21967 0.21967C7.07902 0.360322 7 0.551088 7 0.75C7 0.948912 7.07902 1.13968 7.21967 1.28033C7.36032 1.42098 7.55109 1.5 7.75 1.5H8.25C8.44891 1.5 8.63968 1.42098 8.78033 1.28033C8.92098 1.13968 9 0.948912 9 0.75C9 0.551088 8.92098 0.360322 8.78033 0.21967C8.63968 0.0790175 8.44891 0 8.25 0H7.75Z" fill="#0068CE"/>
</svg>
