<svg width="22" height="18" viewBox="0 0 22 18" fill="none" xmlns="http://www.w3.org/2000/svg">
<path d="M12.697 0.699951C13.0577 0.699946 13.4118 0.797538 13.7217 0.982388C14.0315 1.16724 14.2856 1.43246 14.457 1.74995L14.943 2.64995C15.1143 2.96744 15.3684 3.23267 15.6782 3.41751C15.9881 3.60236 16.3422 3.69996 16.703 3.69995H18.7C19.2304 3.69995 19.7391 3.91066 20.1142 4.28574C20.4892 4.66081 20.7 5.16952 20.7 5.69995V14.7C20.7 15.2304 20.4892 15.7391 20.1142 16.1142C19.7391 16.4892 19.2304 16.7 18.7 16.7H2.69995C2.16952 16.7 1.66081 16.4892 1.28574 16.1142C0.910665 15.7391 0.699951 15.2304 0.699951 14.7V5.69995C0.699951 5.16952 0.910665 4.66081 1.28574 4.28574C1.66081 3.91066 2.16952 3.69995 2.69995 3.69995H4.69695C5.05737 3.69997 5.4111 3.60259 5.72073 3.41812C6.03036 3.23364 6.28439 2.96892 6.45595 2.65195L6.94495 1.74795C7.11651 1.43098 7.37054 1.16626 7.68017 0.981785C7.9898 0.797308 8.34353 0.699931 8.70395 0.699951H12.697Z" stroke="#2481FB" stroke-width="1.4" stroke-linecap="round" stroke-linejoin="round"/>
</svg>
