<svg width="14" height="14" viewBox="0 0 14 14" fill="none" xmlns="http://www.w3.org/2000/svg">
<path d="M9.22328 9.31119L11.8673 11.9472M10.6046 5.98186C10.6151 5.35772 10.5013 4.73774 10.2697 4.15806C10.0381 3.57838 9.69345 3.0506 9.25578 2.60551C8.81812 2.16041 8.29622 1.8069 7.72052 1.5656C7.14482 1.32429 6.52684 1.20001 5.90262 1.20001C5.27839 1.20001 4.66041 1.32429 4.08471 1.5656C3.50901 1.8069 2.98711 2.16041 2.54945 2.60551C2.11179 3.0506 1.76712 3.57838 1.53554 4.15806C1.30396 4.73774 1.19011 5.35772 1.20062 5.98186C1.22139 7.2152 1.72591 8.39099 2.60544 9.25584C3.48498 10.1207 4.66911 10.6053 5.90262 10.6053C7.13613 10.6053 8.32025 10.1207 9.19979 9.25584C10.0793 8.39099 10.5838 7.2152 10.6046 5.98186Z" stroke="#837CFF" stroke-width="2.4" stroke-linecap="round" stroke-linejoin="round"/>
</svg>
