<svg width="26" height="30" viewBox="0 0 26 30" fill="none" xmlns="http://www.w3.org/2000/svg">
<path d="M16.959 23.3125V24.375C16.959 25.5022 16.5112 26.5832 15.7142 27.3802C14.9171 28.1772 13.8361 28.625 12.709 28.625C11.5818 28.625 10.5008 28.1772 9.70375 27.3802C8.90672 26.5832 8.45895 25.5022 8.45895 24.375V23.3125M24.1096 21.1496C22.4043 19.0625 21.2003 18 21.2003 12.2459C21.2003 6.97656 18.5095 5.09926 16.2949 4.1875C16.0007 4.06664 15.7238 3.78906 15.6341 3.48691C15.2457 2.16477 14.1566 1 12.709 1C11.2613 1 10.1716 2.16543 9.78707 3.48824C9.69743 3.79371 9.42051 4.06664 9.12633 4.1875C6.90903 5.10059 4.2209 6.97125 4.2209 12.2459C4.21758 18 3.01363 19.0625 1.30832 21.1496C0.601759 22.0143 1.22067 23.3125 2.45649 23.3125H22.9681C24.1972 23.3125 24.8122 22.0103 24.1096 21.1496Z" stroke="#837CFF" stroke-width="2" stroke-linecap="round" stroke-linejoin="round"/>
</svg>
