<svg width="18" height="18" viewBox="0 0 18 18" fill="none" xmlns="http://www.w3.org/2000/svg">
<path d="M0.699951 1.69995C0.699951 1.43473 0.805308 1.18038 0.992845 0.992845C1.18038 0.805308 1.43473 0.699951 1.69995 0.699951H5.69995C5.96517 0.699951 6.21952 0.805308 6.40706 0.992845C6.59459 1.18038 6.69995 1.43473 6.69995 1.69995V6.69995C6.69995 6.96517 6.59459 7.21952 6.40706 7.40706C6.21952 7.59459 5.96517 7.69995 5.69995 7.69995H1.69995C1.43473 7.69995 1.18038 7.59459 0.992845 7.40706C0.805308 7.21952 0.699951 6.96517 0.699951 6.69995V1.69995ZM10.7 1.69995C10.7 1.43473 10.8053 1.18038 10.9928 0.992845C11.1804 0.805308 11.4347 0.699951 11.7 0.699951H15.7C15.9652 0.699951 16.2195 0.805308 16.4071 0.992845C16.5946 1.18038 16.7 1.43473 16.7 1.69995V3.69995C16.7 3.96517 16.5946 4.21952 16.4071 4.40706C16.2195 4.59459 15.9652 4.69995 15.7 4.69995H11.7C11.4347 4.69995 11.1804 4.59459 10.9928 4.40706C10.8053 4.21952 10.7 3.96517 10.7 3.69995V1.69995ZM0.699951 12.7C0.699951 12.4347 0.805308 12.1804 0.992845 11.9928C1.18038 11.8053 1.43473 11.7 1.69995 11.7H5.69995C5.96517 11.7 6.21952 11.8053 6.40706 11.9928C6.59459 12.1804 6.69995 12.4347 6.69995 12.7V15.7C6.69995 15.9652 6.59459 16.2195 6.40706 16.4071C6.21952 16.5946 5.96517 16.7 5.69995 16.7H1.69995C1.43473 16.7 1.18038 16.5946 0.992845 16.4071C0.805308 16.2195 0.699951 15.9652 0.699951 15.7V12.7ZM10.7 9.69995C10.7 9.43473 10.8053 9.18038 10.9928 8.99284C11.1804 8.80531 11.4347 8.69995 11.7 8.69995H15.7C15.9652 8.69995 16.2195 8.80531 16.4071 8.99284C16.5946 9.18038 16.7 9.43473 16.7 9.69995V15.7C16.7 15.9652 16.5946 16.2195 16.4071 16.4071C16.2195 16.5946 15.9652 16.7 15.7 16.7H11.7C11.4347 16.7 11.1804 16.5946 10.9928 16.4071C10.8053 16.2195 10.7 15.9652 10.7 15.7V9.69995Z" stroke="white" stroke-width="1.4"/>
</svg>
