<svg width="20" height="19" viewBox="0 0 20 19" fill="none" xmlns="http://www.w3.org/2000/svg">
<path d="M5.8999 5.90002H13.8999M5.8999 9.90002H11.8999M15.8999 0.900024C16.6956 0.900024 17.4586 1.2161 18.0212 1.7787C18.5838 2.34131 18.8999 3.10437 18.8999 3.90002V11.9C18.8999 12.6957 18.5838 13.4587 18.0212 14.0213C17.4586 14.584 16.6956 14.9 15.8999 14.9H10.8999L5.8999 17.9V14.9H3.8999C3.10425 14.9 2.34119 14.584 1.77858 14.0213C1.21597 13.4587 0.899902 12.6957 0.899902 11.9V3.90002C0.899902 3.10437 1.21597 2.34131 1.77858 1.7787C2.34119 1.2161 3.10425 0.900024 3.8999 0.900024H15.8999Z" stroke="#0F283C" stroke-width="1.8" stroke-linecap="round" stroke-linejoin="round"/>
</svg>
