<svg width="19" height="19" viewBox="0 0 19 19" fill="none" xmlns="http://www.w3.org/2000/svg">
<path d="M17.25 9.25H1.25M13.25 1.25H15.25C15.7804 1.25 16.2891 1.46071 16.6642 1.83579C17.0393 2.21086 17.25 2.71957 17.25 3.25V5.25M5.25 17.25H3.25C2.71957 17.25 2.21086 17.0393 1.83579 16.6642C1.46071 16.2891 1.25 15.7804 1.25 15.25V13.25M17.25 13.25V15.25C17.25 15.7804 17.0393 16.2891 16.6642 16.6642C16.2891 17.0393 15.7804 17.25 15.25 17.25H13.25M1.25 5.25V3.25C1.25 2.71957 1.46071 2.21086 1.83579 1.83579C2.21086 1.46071 2.71957 1.25 3.25 1.25H5.25" stroke="#0F283C" stroke-width="2.5" stroke-linecap="round" stroke-linejoin="round"/>
</svg>
