<svg width="19" height="19" viewBox="0 0 19 19" fill="none" xmlns="http://www.w3.org/2000/svg">
<path d="M17.2389 10.4321V14.8721C17.2387 15.5003 16.989 16.1027 16.5448 16.5469C16.1006 16.9911 15.4982 17.2408 14.8699 17.2411H3.26894C2.9567 17.2409 2.64756 17.1791 2.35928 17.0591C2.071 16.9392 1.80928 16.7634 1.58914 16.542C1.369 16.3205 1.19478 16.0578 1.07651 15.7688C0.958236 15.4798 0.898231 15.1703 0.899944 14.8581V3.27007C0.898086 2.95831 0.95812 2.64929 1.07657 2.36091C1.19501 2.07253 1.36951 1.81053 1.58996 1.59008C1.8104 1.36964 2.07241 1.19513 2.36079 1.07669C2.64917 0.958242 2.95819 0.898208 3.26994 0.900066H7.70894" stroke="#3EBA88" stroke-width="1.8" stroke-linecap="round" stroke-linejoin="round"/>
</svg>
