<svg width="17" height="17" viewBox="0 0 17 17" fill="none" xmlns="http://www.w3.org/2000/svg">
<path d="M13.1549 7.14572L9.0699 3.05972M0.899904 13.9537V11.7887C0.901904 11.4317 1.0439 11.0887 1.2949 10.8357L10.8269 1.30372C10.9534 1.17583 11.104 1.0743 11.27 1.005C11.4359 0.935705 11.614 0.900024 11.7939 0.900024C11.9738 0.900024 12.1519 0.935705 12.3178 1.005C12.4838 1.0743 12.6344 1.17583 12.7609 1.30372L14.9119 3.45472C15.0398 3.5812 15.1413 3.73179 15.2106 3.89778C15.2799 4.06377 15.3156 4.24185 15.3156 4.42172C15.3156 4.60159 15.2799 4.77968 15.2106 4.94567C15.1413 5.11165 15.0398 5.26224 14.9119 5.38872L5.3799 14.9207C5.12644 15.1724 4.78412 15.3143 4.4269 15.3157H2.2619C2.08297 15.316 1.90574 15.2809 1.74038 15.2126C1.57501 15.1442 1.42476 15.0439 1.29824 14.9174C1.17171 14.7909 1.0714 14.6406 1.00304 14.4752C0.93469 14.3099 0.89964 14.1327 0.899904 13.9537Z" stroke="#3EBA88" stroke-width="1.8" stroke-linecap="round" stroke-linejoin="round"/>
</svg>
