<svg width="25" height="28" viewBox="0 0 25 28" fill="none" xmlns="http://www.w3.org/2000/svg">
<path d="M16.0198 22V23C16.0198 24.0609 15.5984 25.0783 14.8483 25.8284C14.0981 26.5786 13.0807 27 12.0198 27C10.959 27 9.94156 26.5786 9.19141 25.8284C8.44127 25.0783 8.01984 24.0609 8.01984 23V22M22.7498 19.9644C21.1448 18 20.0117 17 20.0117 11.5844C20.0117 6.625 17.4792 4.85812 15.3948 4C15.118 3.88625 14.8573 3.625 14.773 3.34062C14.4073 2.09625 13.3823 1 12.0198 1C10.6573 1 9.63172 2.09688 9.26984 3.34188C9.18547 3.62938 8.92484 3.88625 8.64797 4C6.56109 4.85938 4.03109 6.62 4.03109 11.5844C4.02797 17 2.89484 18 1.28984 19.9644C0.62484 20.7781 1.20734 22 2.37047 22H21.6755C22.8323 22 23.4111 20.7744 22.7498 19.9644Z" stroke="#564DFB" stroke-width="2" stroke-linecap="round" stroke-linejoin="round"/>
</svg>
