<svg width="19" height="19" viewBox="0 0 19 19" fill="none" xmlns="http://www.w3.org/2000/svg">
<path d="M17.2394 10.4324V14.8724C17.2392 15.5006 16.9895 16.1031 16.5453 16.5473C16.1011 16.9915 15.4986 17.2412 14.8704 17.2414H3.26943C2.95719 17.2413 2.64804 17.1795 2.35977 17.0595C2.07149 16.9395 1.80976 16.7638 1.58962 16.5423C1.36948 16.3209 1.19527 16.0581 1.077 15.7692C0.958724 15.4802 0.89872 15.1707 0.900432 14.8584V3.27043C0.898574 2.95868 0.958608 2.64966 1.07705 2.36128C1.1955 2.0729 1.37 1.81089 1.59045 1.59045C1.81089 1.37 2.0729 1.1955 2.36128 1.07705C2.64966 0.958608 2.95868 0.898574 3.27043 0.900432H7.70943" stroke="#3EBA88" stroke-width="1.8" stroke-linecap="round" stroke-linejoin="round"/>
</svg>
