<svg width="22" height="22" viewBox="0 0 22 22" fill="none" xmlns="http://www.w3.org/2000/svg">
<path d="M9.16839 19.9004C9.34393 20.2044 9.59641 20.4569 9.90043 20.6324C10.2045 20.8079 10.5493 20.9003 10.9004 20.9003C11.2514 20.9003 11.5963 20.8079 11.9003 20.6324C12.2044 20.4569 12.4568 20.2044 12.6324 19.9004M20.9004 6.90039C20.9004 4.60039 20.1004 2.60039 18.9004 0.900391M2.90039 0.900391C1.70039 2.60039 0.900391 4.60039 0.900391 6.90039M2.16239 14.2264C2.03176 14.3696 1.94554 14.5476 1.91425 14.7389C1.88295 14.9302 1.90791 15.1264 1.9861 15.3038C2.06428 15.4811 2.19233 15.6319 2.35465 15.7379C2.51697 15.8438 2.70657 15.9002 2.90039 15.9004H18.9004C19.0942 15.9005 19.2838 15.8442 19.4463 15.7385C19.6087 15.6328 19.7369 15.4821 19.8153 15.3049C19.8937 15.1277 19.9189 14.9315 19.8878 14.7402C19.8568 14.5489 19.7708 14.3707 19.6404 14.2274C18.3104 12.8564 16.9004 11.3994 16.9004 6.90039C16.9004 5.30909 16.2683 3.78297 15.143 2.65775C14.0178 1.53253 12.4917 0.900391 10.9004 0.900391C9.30909 0.900391 7.78297 1.53253 6.65775 2.65775C5.53253 3.78297 4.90039 5.30909 4.90039 6.90039C4.90039 11.3994 3.48939 12.8564 2.16239 14.2264Z" stroke="#0F283C" stroke-width="1.8" stroke-linecap="round" stroke-linejoin="round"/>
</svg>
