<svg width="20" height="19" viewBox="0 0 20 19" fill="none" xmlns="http://www.w3.org/2000/svg">
<path d="M5.90039 5.90039H13.9004M5.90039 9.90039H11.9004M15.9004 0.900391C16.696 0.900391 17.4591 1.21646 18.0217 1.77907C18.5843 2.34168 18.9004 3.10474 18.9004 3.90039V11.9004C18.9004 12.696 18.5843 13.4591 18.0217 14.0217C17.4591 14.5843 16.696 14.9004 15.9004 14.9004H10.9004L5.90039 17.9004V14.9004H3.90039C3.10474 14.9004 2.34168 14.5843 1.77907 14.0217C1.21646 13.4591 0.900391 12.696 0.900391 11.9004V3.90039C0.900391 3.10474 1.21646 2.34168 1.77907 1.77907C2.34168 1.21646 3.10474 0.900391 3.90039 0.900391H15.9004Z" stroke="#0F283C" stroke-width="1.8" stroke-linecap="round" stroke-linejoin="round"/>
</svg>
