<svg width="16" height="16" viewBox="0 0 16 16" fill="none" xmlns="http://www.w3.org/2000/svg">
<path d="M8.92 2.75C8.92 3.44 8.36 4 7.67 4V5.5C8.39935 5.5 9.09882 5.21027 9.61454 4.69454C10.1303 4.17882 10.42 3.47935 10.42 2.75H8.92ZM7.67 4C6.98 4 6.42 3.44 6.42 2.75H4.92C4.92 3.47935 5.20973 4.17882 5.72546 4.69454C6.24118 5.21027 6.94065 5.5 7.67 5.5V4ZM6.42 2.75C6.42 2.06 6.98 1.5 7.67 1.5V0C6.94065 0 6.24118 0.289731 5.72546 0.805456C5.20973 1.32118 4.92 2.02065 4.92 2.75H6.42ZM7.67 1.5C8.36 1.5 8.92 2.06 8.92 2.75H10.42C10.42 2.02065 10.1303 1.32118 9.61454 0.805456C9.09882 0.289731 8.39935 0 7.67 0V1.5ZM0.836 11.606L0.117 11.392L0 11.784L0.267 12.094L0.836 11.606ZM14.504 11.606L15.074 12.095L15.34 11.785L15.223 11.392L14.504 11.606ZM4.67 9.5H10.67V8H4.67V9.5ZM4.67 8C3.64702 7.99973 2.65128 8.32972 1.83094 8.94088C1.01059 9.55205 0.409465 10.4117 0.117 11.392L1.555 11.82C1.75525 11.1495 2.16658 10.5615 2.72781 10.1435C3.28905 9.72549 3.97021 9.49981 4.67 9.5V8ZM7.67 14C6.47942 14.0014 5.30271 13.7444 4.22108 13.2468C3.13946 12.7493 2.17866 12.023 1.405 11.118L0.267 12.094C1.18146 13.163 2.31684 14.022 3.59489 14.6098C4.87294 15.1976 6.26325 15.5013 7.67 15.5V14ZM10.67 9.5C12.14 9.5 13.385 10.478 13.785 11.82L15.223 11.392C14.9305 10.4117 14.3294 9.55205 13.5091 8.94088C12.6887 8.32972 11.693 7.99973 10.67 8V9.5ZM13.935 11.118C13.1613 12.023 12.2005 12.7493 11.1189 13.2468C10.0373 13.7444 8.86058 14.0014 7.67 14V15.5C9.07675 15.5013 10.4671 15.1976 11.7451 14.6098C13.0232 14.022 14.1595 13.164 15.074 12.095L13.935 11.118Z" fill="white"/>
</svg>
