<svg width="18" height="18" viewBox="0 0 18 18" fill="none" xmlns="http://www.w3.org/2000/svg">
<path d="M0.699219 1.69922C0.699219 1.434 0.804576 1.17965 0.992112 0.992112C1.17965 0.804576 1.434 0.699219 1.69922 0.699219H5.69922C5.96444 0.699219 6.21879 0.804576 6.40633 0.992112C6.59386 1.17965 6.69922 1.434 6.69922 1.69922V6.69922C6.69922 6.96444 6.59386 7.21879 6.40633 7.40633C6.21879 7.59386 5.96444 7.69922 5.69922 7.69922H1.69922C1.434 7.69922 1.17965 7.59386 0.992112 7.40633C0.804576 7.21879 0.699219 6.96444 0.699219 6.69922V1.69922ZM10.6992 1.69922C10.6992 1.434 10.8046 1.17965 10.9921 0.992112C11.1796 0.804576 11.434 0.699219 11.6992 0.699219H15.6992C15.9644 0.699219 16.2188 0.804576 16.4063 0.992112C16.5939 1.17965 16.6992 1.434 16.6992 1.69922V3.69922C16.6992 3.96444 16.5939 4.21879 16.4063 4.40633C16.2188 4.59386 15.9644 4.69922 15.6992 4.69922H11.6992C11.434 4.69922 11.1796 4.59386 10.9921 4.40633C10.8046 4.21879 10.6992 3.96444 10.6992 3.69922V1.69922ZM0.699219 12.6992C0.699219 12.434 0.804576 12.1796 0.992112 11.9921C1.17965 11.8046 1.434 11.6992 1.69922 11.6992H5.69922C5.96444 11.6992 6.21879 11.8046 6.40633 11.9921C6.59386 12.1796 6.69922 12.434 6.69922 12.6992V15.6992C6.69922 15.9644 6.59386 16.2188 6.40633 16.4063C6.21879 16.5939 5.96444 16.6992 5.69922 16.6992H1.69922C1.434 16.6992 1.17965 16.5939 0.992112 16.4063C0.804576 16.2188 0.699219 15.9644 0.699219 15.6992V12.6992ZM10.6992 9.69922C10.6992 9.434 10.8046 9.17965 10.9921 8.99211C11.1796 8.80458 11.434 8.69922 11.6992 8.69922H15.6992C15.9644 8.69922 16.2188 8.80458 16.4063 8.99211C16.5939 9.17965 16.6992 9.434 16.6992 9.69922V15.6992C16.6992 15.9644 16.5939 16.2188 16.4063 16.4063C16.2188 16.5939 15.9644 16.6992 15.6992 16.6992H11.6992C11.434 16.6992 11.1796 16.5939 10.9921 16.4063C10.8046 16.2188 10.6992 15.9644 10.6992 15.6992V9.69922Z" stroke="#0F283C" stroke-width="1.4"/>
</svg>
