<svg width="20" height="20" viewBox="0 0 20 20" fill="none" xmlns="http://www.w3.org/2000/svg">
<path d="M18.9004 9.8983C18.9032 11.6851 18.3718 13.4319 17.3744 14.9143C16.5518 16.1413 15.4395 17.1467 14.1359 17.8416C12.8324 18.5365 11.3776 18.8994 9.90039 18.8983C8.42316 18.8994 6.96843 18.5365 5.66483 17.8416C4.36124 17.1467 3.24897 16.1413 2.42639 14.9143C1.64312 13.7467 1.14429 12.4119 0.969897 11.0167C0.7955 9.62163 0.950386 8.20506 1.42214 6.88059C1.89389 5.55612 2.66939 4.3606 3.68646 3.38986C4.70353 2.41912 5.93389 1.70017 7.2789 1.29064C8.62391 0.881114 10.0462 0.792399 11.4316 1.03161C12.8171 1.27082 14.1273 1.8313 15.2571 2.66812C16.3869 3.50494 17.305 4.59483 17.9377 5.85041C18.5703 7.10598 18.9001 8.49233 18.9004 9.8983Z" stroke="white" stroke-width="1.8"/>
</svg>
