<svg width="20" height="20" viewBox="0 0 20 20" fill="none" xmlns="http://www.w3.org/2000/svg">
<path d="M18.9004 9.8983C18.9032 11.6851 18.3718 13.4319 17.3744 14.9143C16.5518 16.1413 15.4395 17.1467 14.1359 17.8416C12.8324 18.5365 11.3776 18.8994 9.90039 18.8983C8.42316 18.8994 6.96843 18.5365 5.66483 17.8416C4.36124 17.1467 3.24897 16.1413 2.42639 14.9143C1.64312 13.7467 1.14429 12.4119 0.969897 11.0167C0.7955 9.62163 0.950386 8.20506 1.42214 6.88059C1.89389 5.55612 2.66939 4.3606 3.68646 3.38986C4.70353 2.41912 5.93389 1.70017 7.2789 1.29064C8.62391 0.881114 10.0462 0.792399 11.4316 1.03161C12.8171 1.27082 14.1273 1.8313 15.2571 2.66812C16.3869 3.50494 17.305 4.59483 17.9377 5.85041C18.5703 7.10598 18.9001 8.49233 18.9004 9.8983Z" stroke="white" stroke-width="1.8"/>
<path d="M11.1505 6.89844C11.1505 7.58844 10.5905 8.14844 9.90047 8.14844V9.64844C10.6298 9.64844 11.3293 9.35871 11.845 8.84298C12.3607 8.32726 12.6505 7.62778 12.6505 6.89844H11.1505ZM9.90047 8.14844C9.21047 8.14844 8.65047 7.58844 8.65047 6.89844H7.15047C7.15047 7.62778 7.4402 8.32726 7.95592 8.84298C8.47165 9.35871 9.17112 9.64844 9.90047 9.64844V8.14844ZM8.65047 6.89844C8.65047 6.20844 9.21047 5.64844 9.90047 5.64844V4.14844C9.17112 4.14844 8.47165 4.43817 7.95592 4.95389C7.4402 5.46962 7.15047 6.16909 7.15047 6.89844H8.65047ZM9.90047 5.64844C10.5905 5.64844 11.1505 6.20844 11.1505 6.89844H12.6505C12.6505 6.16909 12.3607 5.46962 11.845 4.95389C11.3293 4.43817 10.6298 4.14844 9.90047 4.14844V5.64844ZM3.06647 15.7544L2.34747 15.5404L2.23047 15.9324L2.49747 16.2424L3.06647 15.7544ZM16.7345 15.7544L17.3045 16.2434L17.5705 15.9334L17.4535 15.5404L16.7345 15.7544ZM6.90047 13.6484H12.9005V12.1484H6.90047V13.6484ZM6.90047 12.1484C5.87749 12.1482 4.88175 12.4782 4.0614 13.0893C3.24106 13.7005 2.63993 14.5602 2.34747 15.5404L3.78547 15.9684C3.98572 15.2979 4.39704 14.7099 4.95828 14.2919C5.51951 13.8739 6.20068 13.6482 6.90047 13.6484V12.1484ZM9.90047 18.1484C8.70989 18.1498 7.53318 17.8928 6.45155 17.3953C5.36993 16.8977 4.40913 16.1714 3.63547 15.2664L2.49747 16.2424C3.41193 17.3114 4.54731 18.1704 5.82536 18.7582C7.1034 19.3461 8.49372 19.6498 9.90047 19.6484V18.1484ZM12.9005 13.6484C14.3705 13.6484 15.6155 14.6264 16.0155 15.9684L17.4535 15.5404C17.161 14.5602 16.5599 13.7005 15.7395 13.0893C14.9192 12.4782 13.9234 12.1482 12.9005 12.1484V13.6484ZM16.1655 15.2664C15.3918 16.1714 14.431 16.8977 13.3494 17.3953C12.2678 17.8928 11.0911 18.1498 9.90047 18.1484V19.6484C11.3072 19.6498 12.6975 19.3461 13.9756 18.7582C15.2536 18.1704 16.39 17.3124 17.3045 16.2434L16.1655 15.2664Z" fill="white"/>
</svg>
