<svg width="17" height="17" viewBox="0 0 17 17" fill="none" xmlns="http://www.w3.org/2000/svg">
<path d="M13.1554 7.14609L9.07039 3.06009M0.900392 13.9541V11.7891C0.902392 11.4321 1.04439 11.0891 1.29539 10.8361L10.8274 1.30409C10.9539 1.1762 11.1045 1.07466 11.2704 1.00537C11.4364 0.936071 11.6145 0.900391 11.7944 0.900391C11.9743 0.900391 12.1523 0.936071 12.3183 1.00537C12.4843 1.07466 12.6349 1.1762 12.7614 1.30409L14.9124 3.45509C15.0403 3.58157 15.1418 3.73216 15.2111 3.89815C15.2804 4.06413 15.3161 4.24222 15.3161 4.42209C15.3161 4.60196 15.2804 4.78005 15.2111 4.94603C15.1418 5.11202 15.0403 5.26261 14.9124 5.38909L5.38039 14.9211C5.12693 15.1728 4.78461 15.3147 4.42739 15.3161H2.26239C2.08346 15.3164 1.90623 15.2813 1.74087 15.213C1.5755 15.1446 1.42525 15.0443 1.29873 14.9178C1.1722 14.7912 1.07189 14.641 1.00353 14.4756C0.935178 14.3103 0.900129 14.133 0.900392 13.9541Z" stroke="#3EBA88" stroke-width="1.8" stroke-linecap="round" stroke-linejoin="round"/>
</svg>
