<svg width="5" height="10" viewBox="0 0 5 10" fill="none" xmlns="http://www.w3.org/2000/svg">
<path d="M3.125 8.75V3.75H0.625V5H1.875V8.75H0V10H5V8.75H3.125ZM2.5 0C2.31458 0 2.13332 0.0549832 1.97915 0.157997C1.82498 0.261011 1.70482 0.407429 1.63386 0.578734C1.56291 0.75004 1.54434 0.93854 1.58051 1.1204C1.61669 1.30225 1.70598 1.4693 1.83709 1.60041C1.9682 1.73152 2.13525 1.82081 2.3171 1.85699C2.49896 1.89316 2.68746 1.87459 2.85877 1.80364C3.03007 1.73268 3.17649 1.61252 3.2795 1.45835C3.38252 1.30418 3.4375 1.12292 3.4375 0.9375C3.4375 0.68886 3.33873 0.450403 3.16291 0.274587C2.9871 0.0987719 2.74864 0 2.5 0Z" fill="#6A6A6A"/>
</svg>
