<svg width="22" height="18" viewBox="0 0 22 18" fill="none" xmlns="http://www.w3.org/2000/svg">
<path d="M12.697 0.700012C13.0577 0.700007 13.4118 0.797599 13.7217 0.982449C14.0315 1.1673 14.2856 1.43252 14.457 1.75001L14.943 2.65001C15.1143 2.9675 15.3684 3.23273 15.6782 3.41758C15.9881 3.60243 16.3422 3.70002 16.703 3.70001H18.7C19.2304 3.70001 19.7391 3.91073 20.1142 4.2858C20.4892 4.66087 20.7 5.16958 20.7 5.70001V14.7C20.7 15.2304 20.4892 15.7392 20.1142 16.1142C19.7391 16.4893 19.2304 16.7 18.7 16.7H2.69995C2.16952 16.7 1.66081 16.4893 1.28574 16.1142C0.910665 15.7392 0.699951 15.2304 0.699951 14.7V5.70001C0.699951 5.16958 0.910665 4.66087 1.28574 4.2858C1.66081 3.91073 2.16952 3.70001 2.69995 3.70001H4.69695C5.05737 3.70003 5.4111 3.60265 5.72073 3.41818C6.03036 3.2337 6.28439 2.96898 6.45595 2.65201L6.94495 1.74801C7.11651 1.43104 7.37054 1.16632 7.68017 0.981846C7.9898 0.797369 8.34353 0.699992 8.70395 0.700012H12.697Z" stroke="white" stroke-width="1.4" stroke-linecap="round" stroke-linejoin="round"/>
<path d="M10.7 12.7C12.3568 12.7 13.7 11.3569 13.7 9.70001C13.7 8.04316 12.3568 6.70001 10.7 6.70001C9.0431 6.70001 7.69995 8.04316 7.69995 9.70001C7.69995 11.3569 9.0431 12.7 10.7 12.7Z" stroke="white" stroke-width="1.4" stroke-linecap="round" stroke-linejoin="round"/>
</svg>
