<svg width="14" height="14" viewBox="0 0 14 14" fill="none" xmlns="http://www.w3.org/2000/svg">
<path d="M9.22328 9.31118L11.8673 11.9472M10.6046 5.98184C10.6151 5.35771 10.5013 4.73772 10.2697 4.15804C10.0381 3.57836 9.69345 3.05059 9.25578 2.60549C8.81812 2.1604 8.29622 1.80689 7.72052 1.56558C7.14482 1.32427 6.52684 1.2 5.90262 1.2C5.27839 1.2 4.66041 1.32427 4.08471 1.56558C3.50901 1.80689 2.98711 2.1604 2.54945 2.60549C2.11179 3.05059 1.76712 3.57836 1.53554 4.15804C1.30396 4.73772 1.19011 5.35771 1.20062 5.98184C1.22139 7.21518 1.72591 8.39098 2.60544 9.25583C3.48498 10.1207 4.66911 10.6053 5.90262 10.6053C7.13613 10.6053 8.32025 10.1207 9.19979 9.25583C10.0793 8.39098 10.5838 7.21518 10.6046 5.98184Z" stroke="#837CFF" stroke-width="2.4" stroke-linecap="round" stroke-linejoin="round"/>
</svg>
