<svg width="18" height="18" viewBox="0 0 18 18" fill="none" xmlns="http://www.w3.org/2000/svg">
<path d="M0.699951 1.70001C0.699951 1.4348 0.805308 1.18044 0.992845 0.992906C1.18038 0.805369 1.43473 0.700012 1.69995 0.700012H5.69995C5.96517 0.700012 6.21952 0.805369 6.40706 0.992906C6.59459 1.18044 6.69995 1.4348 6.69995 1.70001V6.70001C6.69995 6.96523 6.59459 7.21958 6.40706 7.40712C6.21952 7.59466 5.96517 7.70001 5.69995 7.70001H1.69995C1.43473 7.70001 1.18038 7.59466 0.992845 7.40712C0.805308 7.21958 0.699951 6.96523 0.699951 6.70001V1.70001ZM10.7 1.70001C10.7 1.4348 10.8053 1.18044 10.9928 0.992906C11.1804 0.805369 11.4347 0.700012 11.7 0.700012H15.7C15.9652 0.700012 16.2195 0.805369 16.4071 0.992906C16.5946 1.18044 16.7 1.4348 16.7 1.70001V3.70001C16.7 3.96523 16.5946 4.21958 16.4071 4.40712C16.2195 4.59466 15.9652 4.70001 15.7 4.70001H11.7C11.4347 4.70001 11.1804 4.59466 10.9928 4.40712C10.8053 4.21958 10.7 3.96523 10.7 3.70001V1.70001ZM0.699951 12.7C0.699951 12.4348 0.805308 12.1804 0.992845 11.9929C1.18038 11.8054 1.43473 11.7 1.69995 11.7H5.69995C5.96517 11.7 6.21952 11.8054 6.40706 11.9929C6.59459 12.1804 6.69995 12.4348 6.69995 12.7V15.7C6.69995 15.9652 6.59459 16.2196 6.40706 16.4071C6.21952 16.5947 5.96517 16.7 5.69995 16.7H1.69995C1.43473 16.7 1.18038 16.5947 0.992845 16.4071C0.805308 16.2196 0.699951 15.9652 0.699951 15.7V12.7ZM10.7 9.70001C10.7 9.4348 10.8053 9.18044 10.9928 8.99291C11.1804 8.80537 11.4347 8.70001 11.7 8.70001H15.7C15.9652 8.70001 16.2195 8.80537 16.4071 8.99291C16.5946 9.18044 16.7 9.4348 16.7 9.70001V15.7C16.7 15.9652 16.5946 16.2196 16.4071 16.4071C16.2195 16.5947 15.9652 16.7 15.7 16.7H11.7C11.4347 16.7 11.1804 16.5947 10.9928 16.4071C10.8053 16.2196 10.7 15.9652 10.7 15.7V9.70001Z" stroke="white" stroke-width="1.4"/>
</svg>
