<svg width="20" height="20" viewBox="0 0 20 20" fill="none" xmlns="http://www.w3.org/2000/svg">
<path d="M18.8999 9.89791C18.9027 11.6847 18.3713 13.4315 17.3739 14.9139C16.5513 16.1409 15.4391 17.1463 14.1355 17.8412C12.8319 18.5361 11.3771 18.899 9.8999 18.8979C8.42268 18.899 6.96794 18.5361 5.66435 17.8412C4.36076 17.1463 3.24848 16.1409 2.4259 14.9139C1.64263 13.7463 1.1438 12.4115 0.969408 11.0163C0.795012 9.62123 0.949898 8.20466 1.42165 6.88019C1.8934 5.55572 2.6689 4.3602 3.68597 3.38946C4.70304 2.41872 5.9334 1.69977 7.27841 1.29025C8.62342 0.880718 10.0457 0.792002 11.4311 1.03121C12.8166 1.27042 14.1268 1.8309 15.2566 2.66773C16.3864 3.50455 17.3045 4.59443 17.9372 5.85001C18.5699 7.10559 18.8996 8.49193 18.8999 9.89791Z" stroke="#0F283C" stroke-width="1.8"/>
</svg>
