<svg width="1284" height="1557" viewBox="0 0 1284 1557" fill="none" xmlns="http://www.w3.org/2000/svg">
<g id="Group">
<path id="Vector" d="M698.124 0.690437L697.291 0L7.53818e-05 1071.54L0.833248 1072.23L698.124 0.690437Z" fill="white"/>
<path id="Vector_2" d="M702.884 4.63601L702.051 3.94558L4.76016 1075.49L5.59333 1076.18L702.884 4.63601Z" fill="white"/>
<path id="Vector_3" d="M707.646 8.58159L706.813 7.89115L9.5222 1079.43L10.3554 1080.12L707.646 8.58159Z" fill="white"/>
<path id="Vector_4" d="M712.406 12.5272L711.573 11.8367L14.2823 1083.38L15.1155 1084.07L712.406 12.5272Z" fill="white"/>
<path id="Vector_5" d="M717.168 16.4708L716.335 15.7804L19.0443 1087.32L19.8775 1088.01L717.168 16.4708Z" fill="white"/>
<path id="Vector_6" d="M745.735 40.1443L744.902 39.4538L47.6107 1111L48.4439 1111.69L745.735 40.1443Z" fill="white"/>
<path id="Vector_7" d="M721.93 20.4183L721.097 19.7279L23.8064 1091.27L24.6395 1091.96L721.93 20.4183Z" fill="white"/>
<path id="Vector_8" d="M750.495 44.0898L749.662 43.3994L52.3708 1114.94L53.204 1115.63L750.495 44.0898Z" fill="white"/>
<path id="Vector_9" d="M726.69 24.3619L725.857 23.6715L28.5664 1095.21L29.3996 1095.9L726.69 24.3619Z" fill="white"/>
<path id="Vector_10" d="M755.255 48.0335L754.422 47.343L57.1309 1118.89L57.964 1119.58L755.255 48.0335Z" fill="white"/>
<path id="Vector_11" d="M731.451 28.3075L730.617 27.6171L33.3265 1099.16L34.1597 1099.85L731.451 28.3075Z" fill="white"/>
<path id="Vector_12" d="M760.015 51.979L759.182 51.2886L61.8909 1122.83L62.7241 1123.52L760.015 51.979Z" fill="white"/>
<path id="Vector_13" d="M736.211 32.2531L735.377 31.5627L38.0866 1103.11L38.9198 1103.8L736.211 32.2531Z" fill="white"/>
<path id="Vector_14" d="M764.779 55.9266L763.946 55.2361L66.6549 1126.78L67.4881 1127.47L764.779 55.9266Z" fill="white"/>
<path id="Vector_15" d="M740.975 36.1987L740.141 35.5082L42.8506 1107.05L43.6838 1107.74L740.975 36.1987Z" fill="white"/>
<path id="Vector_16" d="M769.539 59.8702L768.706 59.1798L71.415 1130.72L72.2482 1131.41L769.539 59.8702Z" fill="white"/>
<path id="Vector_17" d="M774.299 63.8158L773.466 63.1253L76.1751 1134.67L77.0083 1135.36L774.299 63.8158Z" fill="white"/>
<path id="Vector_18" d="M802.864 87.4873L802.03 86.7968L104.74 1158.34L105.573 1159.03L802.864 87.4873Z" fill="white"/>
<path id="Vector_19" d="M779.059 67.7613L778.226 67.0709L80.9352 1138.61L81.7684 1139.3L779.059 67.7613Z" fill="white"/>
<path id="Vector_20" d="M807.628 91.4329L806.794 90.7424L109.504 1162.29L110.337 1162.98L807.628 91.4329Z" fill="white"/>
<path id="Vector_21" d="M783.823 71.7069L782.99 71.0165L85.6992 1142.56L86.5324 1143.25L783.823 71.7069Z" fill="white"/>
<path id="Vector_22" d="M812.388 95.3804L811.554 94.6899L114.264 1166.23L115.097 1166.92L812.388 95.3804Z" fill="white"/>
<path id="Vector_23" d="M788.583 75.6525L787.75 74.9621L90.4593 1146.5L91.2924 1147.2L788.583 75.6525Z" fill="white"/>
<path id="Vector_24" d="M817.15 99.324L816.317 98.6336L119.026 1170.18L119.859 1170.87L817.15 99.324Z" fill="white"/>
<path id="Vector_25" d="M793.343 79.5961L792.51 78.9057L95.2194 1150.45L96.0525 1151.14L793.343 79.5961Z" fill="white"/>
<path id="Vector_26" d="M821.91 103.27L821.077 102.579L123.786 1174.12L124.619 1174.81L821.91 103.27Z" fill="white"/>
<path id="Vector_27" d="M798.103 83.5417L797.27 82.8513L99.9794 1154.39L100.813 1155.08L798.103 83.5417Z" fill="white"/>
<path id="Vector_28" d="M826.67 107.215L825.837 106.525L128.546 1178.07L129.379 1178.76L826.67 107.215Z" fill="white"/>
<path id="Vector_29" d="M830.813 110.647L829.98 109.957L132.689 1181.5L133.522 1182.19L830.813 110.647Z" fill="white"/>
<path id="Vector_30" d="M859.379 134.32L858.546 133.63L161.255 1205.17L162.088 1205.86L859.379 134.32Z" fill="white"/>
<path id="Vector_31" d="M835.575 114.593L834.742 113.902L137.451 1185.44L138.284 1186.14L835.575 114.593Z" fill="white"/>
<path id="Vector_32" d="M864.141 138.266L863.308 137.576L166.017 1209.12L166.85 1209.81L864.141 138.266Z" fill="white"/>
<path id="Vector_33" d="M840.335 118.538L839.502 117.848L142.211 1189.39L143.044 1190.08L840.335 118.538Z" fill="white"/>
<path id="Vector_34" d="M868.901 142.212L868.068 141.521L170.777 1213.06L171.61 1213.75L868.901 142.212Z" fill="white"/>
<path id="Vector_35" d="M845.097 122.484L844.264 121.793L146.973 1193.34L147.806 1194.03L845.097 122.484Z" fill="white"/>
<path id="Vector_36" d="M873.663 146.155L872.83 145.465L175.539 1217.01L176.372 1217.7L873.663 146.155Z" fill="white"/>
<path id="Vector_37" d="M849.859 126.429L849.026 125.739L151.735 1197.28L152.568 1197.97L849.859 126.429Z" fill="white"/>
<path id="Vector_38" d="M878.423 150.101L877.59 149.41L180.299 1220.95L181.132 1221.64L878.423 150.101Z" fill="white"/>
<path id="Vector_39" d="M854.619 130.375L853.786 129.684L156.495 1201.23L157.328 1201.92L854.619 130.375Z" fill="white"/>
<path id="Vector_40" d="M883.183 154.046L882.35 153.356L185.059 1224.9L185.893 1225.59L883.183 154.046Z" fill="white"/>
<path id="Vector_41" d="M887.947 157.992L887.114 157.302L189.823 1228.84L190.657 1229.53L887.947 157.992Z" fill="white"/>
<path id="Vector_42" d="M916.512 181.665L915.679 180.975L218.388 1252.52L219.221 1253.21L916.512 181.665Z" fill="white"/>
<path id="Vector_43" d="M892.706 161.938L891.872 161.247L194.581 1232.79L195.415 1233.48L892.706 161.938Z" fill="white"/>
<path id="Vector_44" d="M921.272 185.609L920.439 184.919L223.148 1256.46L223.981 1257.15L921.272 185.609Z" fill="white"/>
<path id="Vector_45" d="M897.468 165.883L896.634 165.193L199.344 1236.74L200.177 1237.43L897.468 165.883Z" fill="white"/>
<path id="Vector_46" d="M926.032 189.555L925.199 188.864L227.908 1260.41L228.741 1261.1L926.032 189.555Z" fill="white"/>
<path id="Vector_47" d="M902.228 169.827L901.394 169.136L204.104 1240.68L204.937 1241.37L902.228 169.827Z" fill="white"/>
<path id="Vector_48" d="M930.796 193.5L929.963 192.81L232.672 1264.35L233.505 1265.04L930.796 193.5Z" fill="white"/>
<path id="Vector_49" d="M906.988 173.772L906.155 173.082L208.864 1244.62L209.697 1245.31L906.988 173.772Z" fill="white"/>
<path id="Vector_50" d="M935.556 197.446L934.723 196.755L237.432 1268.3L238.265 1268.99L935.556 197.446Z" fill="white"/>
<path id="Vector_51" d="M911.752 177.72L910.919 177.029L213.628 1248.57L214.461 1249.26L911.752 177.72Z" fill="white"/>
<path id="Vector_52" d="M940.316 201.391L939.483 200.701L242.192 1272.24L243.025 1272.93L940.316 201.391Z" fill="white"/>
<path id="Vector_53" d="M945.078 205.337L944.245 204.647L246.954 1276.19L247.787 1276.88L945.078 205.337Z" fill="white"/>
<path id="Vector_54" d="M973.643 229.008L972.809 228.318L275.519 1299.86L276.352 1300.55L973.643 229.008Z" fill="white"/>
<path id="Vector_55" d="M949.838 209.281L949.005 208.59L251.714 1280.13L252.547 1280.82L949.838 209.281Z" fill="white"/>
<path id="Vector_56" d="M978.405 232.954L977.571 232.264L280.281 1303.81L281.114 1304.5L978.405 232.954Z" fill="white"/>
<path id="Vector_57" d="M954.6 213.228L953.767 212.538L256.476 1284.08L257.309 1284.77L954.6 213.228Z" fill="white"/>
<path id="Vector_58" d="M983.167 236.9L982.334 236.209L285.043 1307.75L285.876 1308.44L983.167 236.9Z" fill="white"/>
<path id="Vector_59" d="M959.36 217.172L958.527 216.481L261.236 1288.02L262.07 1288.71L959.36 217.172Z" fill="white"/>
<path id="Vector_60" d="M987.925 240.843L987.092 240.153L289.801 1311.7L290.634 1312.39L987.925 240.843Z" fill="white"/>
<path id="Vector_61" d="M964.12 221.117L963.287 220.427L265.996 1291.97L266.83 1292.66L964.12 221.117Z" fill="white"/>
<path id="Vector_62" d="M992.687 244.791L991.854 244.1L294.563 1315.64L295.396 1316.33L992.687 244.791Z" fill="white"/>
<path id="Vector_63" d="M968.883 225.063L968.049 224.372L270.758 1295.92L271.592 1296.61L968.883 225.063Z" fill="white"/>
<path id="Vector_64" d="M997.449 248.734L996.616 248.044L299.325 1319.59L300.158 1320.28L997.449 248.734Z" fill="white"/>
<path id="Vector_65" d="M1002.21 252.682L1001.38 251.992L304.087 1323.53L304.92 1324.22L1002.21 252.682Z" fill="white"/>
<path id="Vector_66" d="M1030.77 276.353L1029.94 275.663L332.649 1347.21L333.483 1347.9L1030.77 276.353Z" fill="white"/>
<path id="Vector_67" d="M1006.97 256.626L1006.14 255.935L308.845 1327.48L309.678 1328.17L1006.97 256.626Z" fill="white"/>
<path id="Vector_68" d="M1035.54 280.297L1034.7 279.607L337.411 1351.15L338.245 1351.84L1035.54 280.297Z" fill="white"/>
<path id="Vector_69" d="M1011.73 260.571L1010.9 259.881L313.605 1331.42L314.438 1332.11L1011.73 260.571Z" fill="white"/>
<path id="Vector_70" d="M1040.3 284.245L1039.46 283.554L342.173 1355.1L343.007 1355.79L1040.3 284.245Z" fill="white"/>
<path id="Vector_71" d="M1016.49 264.517L1015.66 263.826L318.367 1335.37L319.2 1336.06L1016.49 264.517Z" fill="white"/>
<path id="Vector_72" d="M1045.06 288.188L1044.23 287.498L346.935 1359.04L347.769 1359.73L1045.06 288.188Z" fill="white"/>
<path id="Vector_73" d="M1021.25 268.462L1020.42 267.772L323.129 1339.31L323.962 1340L1021.25 268.462Z" fill="white"/>
<path id="Vector_74" d="M1049.82 292.134L1048.99 291.443L351.696 1362.99L352.529 1363.68L1049.82 292.134Z" fill="white"/>
<path id="Vector_75" d="M1026.02 272.408L1025.18 271.717L327.891 1343.26L328.724 1343.95L1026.02 272.408Z" fill="white"/>
<path id="Vector_76" d="M1054.58 296.079L1053.75 295.389L356.456 1366.93L357.289 1367.62L1054.58 296.079Z" fill="white"/>
<path id="Vector_77" d="M1059.34 300.025L1058.51 299.335L361.216 1370.88L362.049 1371.57L1059.34 300.025Z" fill="white"/>
<path id="Vector_78" d="M1087.91 323.696L1087.07 323.006L389.784 1394.55L390.617 1395.24L1087.91 323.696Z" fill="white"/>
<path id="Vector_79" d="M1064.1 303.971L1063.27 303.28L365.978 1374.82L366.811 1375.51L1064.1 303.971Z" fill="white"/>
<path id="Vector_80" d="M1092.67 327.642L1091.83 326.952L394.544 1398.49L395.377 1399.18L1092.67 327.642Z" fill="white"/>
<path id="Vector_81" d="M1068.86 307.916L1068.03 307.226L370.74 1378.77L371.573 1379.46L1068.86 307.916Z" fill="white"/>
<path id="Vector_82" d="M1097.43 331.588L1096.6 330.897L399.304 1402.44L400.137 1403.13L1097.43 331.588Z" fill="white"/>
<path id="Vector_83" d="M1073.62 311.862L1072.79 311.171L375.5 1382.71L376.333 1383.4L1073.62 311.862Z" fill="white"/>
<path id="Vector_84" d="M1102.19 335.533L1101.36 334.843L404.064 1406.39L404.897 1407.08L1102.19 335.533Z" fill="white"/>
<path id="Vector_85" d="M1078.38 315.807L1077.55 315.117L380.26 1386.66L381.093 1387.35L1078.38 315.807Z" fill="white"/>
<path id="Vector_86" d="M1106.95 339.479L1106.12 338.788L408.828 1410.33L409.661 1411.02L1106.95 339.479Z" fill="white"/>
<path id="Vector_87" d="M1083.14 319.751L1082.31 319.06L385.02 1390.6L385.853 1391.29L1083.14 319.751Z" fill="white"/>
<path id="Vector_88" d="M1111.71 343.424L1110.88 342.734L413.588 1414.28L414.422 1414.97L1111.71 343.424Z" fill="white"/>
<path id="Vector_89" d="M1116.47 347.37L1115.64 346.68L418.348 1418.22L419.182 1418.91L1116.47 347.37Z" fill="white"/>
<path id="Vector_90" d="M1145.04 371.041L1144.2 370.351L446.913 1441.89L447.746 1442.58L1145.04 371.041Z" fill="white"/>
<path id="Vector_91" d="M1121.23 351.314L1120.4 350.623L423.109 1422.17L423.942 1422.86L1121.23 351.314Z" fill="white"/>
<path id="Vector_92" d="M1149.8 374.987L1148.96 374.297L451.673 1445.84L452.506 1446.53L1149.8 374.987Z" fill="white"/>
<path id="Vector_93" d="M1125.99 355.259L1125.16 354.569L427.869 1426.11L428.702 1426.8L1125.99 355.259Z" fill="white"/>
<path id="Vector_94" d="M1154.56 378.933L1153.73 378.242L456.439 1449.78L457.272 1450.48L1154.56 378.933Z" fill="white"/>
<path id="Vector_95" d="M1130.76 359.205L1129.92 358.514L432.633 1430.06L433.466 1430.75L1130.76 359.205Z" fill="white"/>
<path id="Vector_96" d="M1159.32 382.878L1158.49 382.188L461.197 1453.73L462.03 1454.42L1159.32 382.878Z" fill="white"/>
<path id="Vector_97" d="M1135.52 363.15L1134.68 362.46L437.393 1434L438.226 1434.69L1135.52 363.15Z" fill="white"/>
<path id="Vector_98" d="M1164.08 386.822L1163.25 386.131L465.959 1457.67L466.792 1458.36L1164.08 386.822Z" fill="white"/>
<path id="Vector_99" d="M1140.28 367.096L1139.44 366.405L442.153 1437.95L442.986 1438.64L1140.28 367.096Z" fill="white"/>
<path id="Vector_100" d="M1168.84 390.767L1168.01 390.077L470.719 1461.62L471.552 1462.31L1168.84 390.767Z" fill="white"/>
<path id="Vector_101" d="M1173.61 394.713L1172.77 394.023L475.481 1465.57L476.314 1466.26L1173.61 394.713Z" fill="white"/>
<path id="Vector_102" d="M1202.17 418.384L1201.34 417.694L504.048 1489.24L504.881 1489.93L1202.17 418.384Z" fill="white"/>
<path id="Vector_103" d="M1178.37 398.659L1177.53 397.968L480.243 1469.51L481.076 1470.2L1178.37 398.659Z" fill="white"/>
<path id="Vector_104" d="M1206.93 422.33L1206.1 421.64L508.808 1493.18L509.641 1493.87L1206.93 422.33Z" fill="white"/>
<path id="Vector_105" d="M1183.13 402.604L1182.29 401.914L485.001 1473.46L485.835 1474.15L1183.13 402.604Z" fill="white"/>
<path id="Vector_106" d="M1211.69 426.276L1210.86 425.585L513.568 1497.13L514.401 1497.82L1211.69 426.276Z" fill="white"/>
<path id="Vector_107" d="M1187.89 406.55L1187.05 405.859L489.763 1477.4L490.597 1478.09L1187.89 406.55Z" fill="white"/>
<path id="Vector_108" d="M1216.45 430.221L1215.62 429.531L518.33 1501.07L519.163 1501.76L1216.45 430.221Z" fill="white"/>
<path id="Vector_109" d="M1192.65 410.495L1191.81 409.805L494.523 1481.35L495.357 1482.04L1192.65 410.495Z" fill="white"/>
<path id="Vector_110" d="M1221.22 434.167L1220.38 433.476L523.092 1505.02L523.925 1505.71L1221.22 434.167Z" fill="white"/>
<path id="Vector_111" d="M1197.41 414.439L1196.58 413.748L499.287 1485.29L500.121 1485.98L1197.41 414.439Z" fill="white"/>
<path id="Vector_112" d="M1225.98 438.112L1225.14 437.422L527.852 1508.96L528.685 1509.65L1225.98 438.112Z" fill="white"/>
<path id="Vector_113" d="M1230.74 442.058L1229.9 441.368L532.612 1512.91L533.445 1513.6L1230.74 442.058Z" fill="white"/>
<path id="Vector_114" d="M1259.3 465.729L1258.47 465.039L561.176 1536.58L562.01 1537.27L1259.3 465.729Z" fill="white"/>
<path id="Vector_115" d="M1235.5 446.004L1234.66 445.313L537.372 1516.86L538.205 1517.55L1235.5 446.004Z" fill="white"/>
<path id="Vector_116" d="M1264.06 469.675L1263.23 468.985L565.94 1540.53L566.774 1541.22L1264.06 469.675Z" fill="white"/>
<path id="Vector_117" d="M1240.26 449.949L1239.42 449.259L542.134 1520.8L542.967 1521.49L1240.26 449.949Z" fill="white"/>
<path id="Vector_118" d="M1268.82 473.621L1267.99 472.93L570.7 1544.47L571.534 1545.16L1268.82 473.621Z" fill="white"/>
<path id="Vector_119" d="M1245.02 453.893L1244.19 453.202L546.896 1524.74L547.729 1525.44L1245.02 453.893Z" fill="white"/>
<path id="Vector_120" d="M1273.58 477.566L1272.75 476.876L575.461 1548.42L576.294 1549.11L1273.58 477.566Z" fill="white"/>
<path id="Vector_121" d="M1249.78 457.838L1248.95 457.148L551.656 1528.69L552.489 1529.38L1249.78 457.838Z" fill="white"/>
<path id="Vector_122" d="M1278.34 481.512L1277.51 480.821L580.221 1552.36L581.054 1553.05L1278.34 481.512Z" fill="white"/>
<path id="Vector_123" d="M1254.54 461.784L1253.71 461.093L556.414 1532.64L557.248 1533.33L1254.54 461.784Z" fill="white"/>
<path id="Vector_124" d="M1283.11 485.457L1282.28 484.767L584.985 1556.31L585.818 1557L1283.11 485.457Z" fill="white"/>
</g>
</svg>
