<svg width="185" height="37" viewBox="0 0 185 37" fill="none" xmlns="http://www.w3.org/2000/svg">
<g clip-path="url(#clip0_1_3069)">
<mask id="mask0_1_3069" style="mask-type:luminance" maskUnits="userSpaceOnUse" x="0" y="0" width="185" height="37">
<path d="M185 0H0V37H185V0Z" fill="white"/>
</mask>
<g mask="url(#mask0_1_3069)">
<path d="M101.689 12.2898C98.9241 11.9847 96.4988 12.8563 94.4565 15.3404V14.5559V1.04594V0.915194V0L87.0957 0.915194V36.477H94.4565V34.3852C95.4351 35.126 96.4138 35.9976 97.5626 36.3899C101.86 37.9588 107.519 36.6949 109.476 30.8115C110.752 27.02 110.71 23.1849 109.774 19.3498C108.71 15.0789 105.944 12.7691 101.689 12.2898ZM102.796 27.6737C102.455 30.0271 100.668 31.2473 98.4986 31.073C97.9455 31.0294 97.4775 30.8987 97.0094 30.7244C95.2649 29.6784 94.7544 27.9788 94.5842 26.8893C94.4565 25.2332 94.3289 21.7468 95.1373 20.0907C95.8181 18.8269 96.9669 18.1296 98.5412 18.086C100.753 17.9988 102.455 19.1319 102.753 21.4417C103.051 23.5336 103.094 25.669 102.796 27.6737Z" fill="#080A28" fill-opacity="0.3"/>
<path d="M127.774 12.7261C125.221 12.0288 122.625 12.0288 120.072 12.7261C116.243 13.772 113.69 16.2561 112.882 20.1784C112.414 22.3139 112.328 24.6236 112.456 26.8027C112.711 31.858 115.775 35.4316 120.498 36.5647C120.583 36.5647 120.625 36.6083 120.711 36.6083C120.711 36.6083 120.711 36.6083 120.753 36.6083C120.923 36.6519 121.136 36.6955 121.306 36.6955C121.349 36.6955 121.434 36.6955 121.476 36.6955C121.689 36.7391 121.987 36.7826 122.285 36.7826C123.221 36.8698 124.37 36.957 125.391 36.8262C125.433 36.8262 125.476 36.8262 125.561 36.8262C130.454 36.5647 134.156 33.4269 135.219 28.5895C135.815 25.931 135.815 23.2726 135.219 20.6142C134.283 16.5176 131.816 13.8592 127.774 12.7261ZM128.114 27.3256C128.071 27.5 128.071 27.6307 128.029 27.805C127.561 30.0276 125.944 31.2479 123.859 31.1171C121.604 31.03 120.03 29.679 119.817 27.3256C119.647 25.626 119.647 23.9263 119.774 22.2267C119.987 19.5683 121.604 18.0865 124.072 18.1301C126.072 18.1737 127.518 19.3504 128.029 21.3115C128.497 23.3162 128.156 26.8462 128.114 27.3256Z" fill="#080A28" fill-opacity="0.3"/>
<path d="M17.2746 12.5929H11.9986V9.01937C12.3816 5.66366 17.8703 6.27379 17.8703 6.27379V6.05588V6.0123V0.477553C17.6575 0.433972 6.97792 -2.18087 4.89305 6.14304V6.18662C4.55267 7.23256 4.59522 11.9828 4.59522 12.5929H0V18.9557H4.85051V36.2572H11.9135V18.9557H17.3172L17.8703 12.5929H17.2746Z" fill="#080A28" fill-opacity="0.3"/>
<path d="M34.0817 15.6458C33.9966 15.5587 33.9116 15.4715 33.8265 15.3844C33.8265 15.3844 33.8264 15.3408 33.7838 15.3408C33.6987 15.2536 33.6136 15.1665 33.6136 15.1665C31.9543 13.4232 31.316 13.031 30.0396 12.6388C25.0615 11.1135 20.1684 13.8155 18.6366 18.958C17.7006 22.1394 17.658 25.3643 18.2112 28.5893C19.4025 35.5186 24.4658 37.872 29.8268 36.6953C31.4862 36.3467 32.7201 35.3007 33.8265 33.819C33.8265 33.819 33.9116 33.6882 34.0392 33.4268V36.4774H40.8895V12.6388H34.0817V15.6458ZM33.4435 27.6741C33.2308 29.8967 31.4862 31.2041 29.4014 31.117C27.2739 31.0298 25.9124 29.8967 25.4444 27.8049C24.9338 24.8414 25.572 21.3549 25.6146 21.0498C26.1677 19.0887 27.5718 18.0864 29.6566 18.1299C31.699 18.1735 33.2308 19.3938 33.486 21.5728C33.6562 23.5775 33.6563 25.6258 33.4435 27.6741Z" fill="#080A28" fill-opacity="0.3"/>
<path d="M61.9086 34.7795C61.6107 33.6028 61.2278 32.4261 60.8874 31.2495L60.547 29.9856C60.547 29.9856 51.9523 34.2129 50.5907 26.1941C50.4631 24.8867 50.5056 23.4921 50.6758 22.1847C51.0162 19.7006 52.4628 18.3932 54.8455 18.1753C55.654 18.0881 56.4624 18.1317 57.2283 18.2624C58.292 18.4367 59.3557 18.7854 60.5045 19.0905C60.93 17.8266 61.3129 16.5628 61.6958 15.2989C61.7384 15.081 61.8235 14.9503 61.866 14.776L62.0788 14.0351C62.0362 13.9479 61.9086 13.8172 61.7384 13.73C61.5256 13.5557 61.1853 13.425 60.6747 13.2071C60.4619 13.1199 60.2492 13.0763 60.0364 12.9892C59.8663 12.9456 59.7386 12.902 59.7386 12.902C57.4835 12.2483 55.1434 12.2047 52.8032 12.4226C47.8251 12.9456 44.4638 15.9526 43.5277 20.9208C43.0171 23.5357 43.0597 26.1941 43.6128 28.8089C44.4638 32.7312 46.7614 35.2589 50.5482 36.392C53.016 37.1329 55.5263 37.1764 58.0367 36.7842C59.1004 36.6099 60.5896 36.0433 61.6958 35.6511L62.1213 35.5204L61.9086 34.7795Z" fill="#080A28" fill-opacity="0.3"/>
<path d="M84.5856 25.449C84.5431 23.7929 84.5856 22.1369 84.3303 20.5244C83.6921 16.0791 81.0541 13.2464 76.7993 12.5055C75.1825 12.244 73.438 12.244 71.7786 12.4184C67.2259 12.8542 63.7795 15.7741 63.0987 20.1321C62.6733 22.7906 62.6307 25.5797 62.9711 28.2382C63.4817 32.2476 65.3963 34.7753 68.6726 35.9955H68.7151C70.2043 36.4749 77.5652 38.436 84.0325 35.0803L83.7772 34.1215C83.4794 32.8141 83.0964 31.5503 82.7986 30.2429L82.7561 30.1121C82.7561 30.1121 82.6284 30.1557 82.3731 30.2429C82.0753 30.33 81.82 30.4172 81.5222 30.5043C81.4796 30.5043 81.4371 30.5479 81.352 30.5479C80.3734 30.8094 78.9693 31.1581 77.4801 31.376C76.2462 31.5067 74.9697 31.5067 73.7358 31.4195C71.6935 31.0709 70.1192 29.9378 70.2043 27.2794H71.3957C75.4377 27.2794 79.4373 27.2794 83.4794 27.2794C83.5645 27.2794 83.6921 27.2794 83.7772 27.2794C83.7772 27.2794 84.6282 27.2794 84.6707 27.2794C84.6707 27.2794 84.6707 27.0615 84.6707 27.0179L84.5856 25.449ZM77.9481 22.1804H69.9916C70.0341 20.568 70.2469 19.0426 71.6509 18.1274C73.1401 17.1687 74.7995 17.1251 76.3313 17.9967C77.9055 18.9119 78.0332 20.4808 77.9481 22.1804Z" fill="#080A28" fill-opacity="0.3"/>
<path d="M185 12.8999H177.171L170.406 23.7515V1.08952V0.915194V0L163.045 0.915194V36.477H170.406V25.6254L177.171 36.5206H185L177.639 24.6667L185 12.8999Z" fill="#080A28" fill-opacity="0.3"/>
<path d="M152.877 12.7261C150.324 12.0288 147.729 12.0288 145.176 12.7261C141.346 13.772 138.794 16.2561 137.985 20.1784C137.517 22.3139 137.432 24.6236 137.56 26.8027C137.815 31.858 140.878 35.4316 145.601 36.5647C145.686 36.5647 145.729 36.6083 145.814 36.6083C145.814 36.6083 145.814 36.6083 145.857 36.6083C146.027 36.6519 146.24 36.6955 146.41 36.6955C146.452 36.6955 146.537 36.6955 146.58 36.6955C146.793 36.7391 147.09 36.7826 147.388 36.7826C148.324 36.8698 149.473 36.957 150.494 36.8262C150.537 36.8262 150.579 36.8262 150.622 36.8262C155.515 36.5647 159.217 33.4269 160.28 28.5895C160.876 25.931 160.876 23.2726 160.28 20.6142C159.43 16.5176 156.962 13.8592 152.877 12.7261ZM153.217 27.3256C153.175 27.5 153.175 27.6307 153.132 27.805C152.622 30.0276 151.047 31.2479 148.963 31.1171C146.708 31.03 145.133 29.6354 144.921 27.3256C144.75 25.626 144.75 23.9263 144.878 22.2267C145.091 19.5683 146.708 18.0865 149.175 18.1301C151.175 18.1737 152.622 19.3504 153.132 21.3115C153.6 23.3162 153.26 26.8462 153.217 27.3256Z" fill="#080A28" fill-opacity="0.3"/>
</g>
</g>
<defs>
<clipPath id="clip0_1_3069">
<rect width="185" height="37" fill="white"/>
</clipPath>
</defs>
</svg>
