<svg width="151" height="39" viewBox="0 0 151 39" fill="none" xmlns="http://www.w3.org/2000/svg">
<g clip-path="url(#clip0_1_3082)">
<path d="M34.6791 13.7544C36.3119 13.7544 37.896 12.3615 38.1641 10.6453C38.4809 8.9788 37.3842 7.58594 35.7514 7.58594C34.1186 7.58594 32.5345 8.9788 32.2664 10.6453C31.9252 12.3615 32.9975 13.7544 34.6791 13.7544Z" fill="#080A28" fill-opacity="0.3"/>
<path d="M145.858 18.7026C145.858 18.7026 149.465 18.7026 149.513 18.7026C150.025 18.7026 150.318 18.5036 150.415 18.0062C150.586 17.3098 150.878 16.1159 150.951 15.7925C151.049 15.3697 150.805 15.0464 150.342 15.0464C150.22 15.0464 148.514 15.0464 146.735 15.0464C147.003 13.9768 148.002 10.5444 148.002 8.30597C148.002 3.82893 144.274 0.0234375 139.01 0.0234375C133.039 0.0234375 129.164 4.10251 129.164 9.84805C129.164 11.5145 129.773 13.4794 130.529 14.6981C130.212 14.6733 129.895 14.6733 129.554 14.6733C125.021 14.6733 122.17 17.1854 122.17 20.8416C122.17 24.274 124.826 25.5923 127.312 26.4877C129.53 27.2836 131.552 27.6318 131.552 29.3978C131.552 30.5916 130.431 31.2881 128.238 31.2881C125.63 31.2881 124.192 30.0444 123.851 29.5719C124.095 29.3729 124.46 28.9003 124.46 28.1293C124.46 27.0349 123.705 26.1395 122.291 26.1395C121.097 26.1395 120.098 27.1344 119.854 28.4277C117.954 30.0196 115.858 31.0393 112.909 31.0393C110.009 31.0393 108.498 29.4973 108.498 26.2141C109.18 26.4131 110.959 26.6867 112.129 26.6867C117.052 26.6867 120.391 24.3984 120.391 19.8467C120.391 17.3844 118.27 14.7976 114.103 14.7976C108.595 14.7976 105.525 18.3544 104.184 22.2594C103.819 22.1599 103.429 22.0853 103.063 21.9858C103.356 21.1152 103.575 20.1203 103.575 19.0011C103.575 17.061 102.405 14.7976 99.261 14.7976C97.0676 14.7976 94.9961 16.2651 93.5583 18.4539C93.9238 17.0362 94.1432 16.0661 94.1675 16.0164C94.265 15.6433 94.1188 15.2205 93.5339 15.2205C92.8028 15.2205 90.317 15.2205 90.317 15.2205C89.854 15.2205 89.5371 15.3946 89.4153 15.9169C89.3178 16.2651 88.2211 20.6924 87.1488 25.0202C86.4664 27.7064 82.9571 31.0642 78.546 31.0642C75.6459 31.0642 74.1349 29.4226 74.1349 26.1395C74.8904 26.4379 76.5964 26.7115 77.7662 26.7115C82.884 26.7115 86.0278 24.4233 86.0278 19.8716C86.0278 17.4092 83.9075 14.8225 79.7402 14.8225C73.5501 14.8225 69.7482 19.7224 69.1146 25.2938C68.8465 27.6069 66.9456 30.7906 64.8498 30.7906C63.8506 30.7906 63.2657 30.1439 63.2657 29.0495C63.2657 28.1044 63.9237 25.7664 64.6304 22.8563C64.8741 21.8863 65.2397 20.3939 65.6296 18.7524C67.4574 18.7524 68.9196 18.7524 68.9927 18.7524C69.5045 18.7524 69.797 18.5534 69.8945 18.0559C70.0651 17.3595 70.3575 16.1656 70.4306 15.8423C70.5281 15.4194 70.2844 15.0961 69.8213 15.0961C69.6995 15.0961 66.507 15.0961 66.507 15.0961C66.507 15.0961 68.0423 8.87803 68.0667 8.7288C68.2129 8.10699 67.7011 7.7339 67.165 7.85826C67.165 7.85826 64.606 8.38058 64.143 8.48007C63.6556 8.57956 63.29 8.85316 63.1194 9.54959C63.0951 9.64908 61.7547 15.121 61.7547 15.121C61.7547 15.121 59.147 15.121 59.0983 15.121C58.5865 15.121 58.2941 15.32 58.1966 15.8174C58.026 16.5138 57.7336 17.7077 57.6604 18.0311C57.5386 18.4539 57.8067 18.7772 58.2697 18.7772C58.3672 18.7772 59.4639 18.7772 60.8774 18.7772C60.853 18.8518 59.9269 22.4335 59.1958 25.642C58.8546 27.1841 57.6604 30.7906 55.7352 30.7906C54.5897 30.7906 54.1023 30.1937 54.1023 28.9252C54.1023 26.9354 56.0276 21.9112 56.0276 19.6478C56.0276 16.6133 54.4192 14.8474 51.1535 14.8474C49.082 14.8474 46.9618 16.2154 46.0357 17.4092C46.0357 17.4092 46.3038 16.4392 46.4012 16.0661C46.4987 15.6682 46.3038 15.2702 45.792 15.2702C45.0609 15.2702 43.2818 15.2702 42.5994 15.2702C41.9171 15.2702 41.7221 15.6433 41.6246 16.0413C41.5759 16.2154 40.4304 20.8168 39.3338 25.2689C38.5783 28.3034 36.7261 30.8404 34.7765 30.8404C33.7773 30.8404 33.3142 30.1937 33.3142 29.0993C33.3142 28.1541 33.9235 25.8161 34.6303 22.9061C35.5076 19.3742 36.2631 16.4392 36.3606 16.1159C36.458 15.6682 36.2875 15.2951 35.7269 15.2951C35.0446 15.2951 33.2411 15.2951 32.51 15.2951C31.9251 15.2951 31.7302 15.6184 31.6083 16.0413C31.6083 16.0413 30.7066 19.5483 29.7318 23.4284C29.025 26.2638 28.2695 29.1242 28.2695 30.4921C28.2695 32.9048 29.3418 34.7205 32.2419 34.7205C34.484 34.7205 36.2875 33.5515 37.6522 32.0591C37.4572 32.855 37.3354 33.3773 37.311 33.4271C37.1892 33.8748 37.3354 34.2976 37.8715 34.2976C38.6027 34.2976 40.4548 34.2976 41.1616 34.2976C41.7465 34.2976 41.9658 34.0738 42.0633 33.5515C42.1851 33.054 44.6466 23.2045 44.6466 23.2045C45.3046 20.5432 46.913 18.8021 49.1551 18.8021C50.2274 18.8021 51.1535 19.5234 51.056 20.9411C50.9342 22.4832 49.1064 28.0546 49.1064 30.4921C49.1064 32.3327 49.7887 34.7453 53.2006 34.7453C55.5158 34.7453 57.2461 33.6012 58.489 32.1337C58.9521 33.7007 60.1462 34.7453 62.364 34.7453C66.0439 34.7453 68.2616 32.5068 69.5776 30.2683C70.6499 32.8799 73.1845 34.7453 76.9132 34.7453C80.6906 34.7453 83.6395 33.1286 85.711 30.8901C85.3454 32.3825 85.0773 33.4022 85.053 33.4768C84.9311 33.9494 85.1261 34.3225 85.6622 34.3225C86.369 34.3225 88.6111 34.3225 88.9279 34.3225C89.3665 34.3225 89.6834 34.0987 89.8052 33.6012C89.854 33.3774 90.3414 31.5119 90.9994 28.8754C92.2666 23.8263 94.3138 18.5782 97.3845 18.5782C98.4568 18.5782 98.9198 19.2001 98.9198 20.1701C98.9198 20.6178 98.7979 21.0157 98.6761 21.2396C97.1895 20.9411 95.9953 21.6873 95.9953 23.304C95.9953 24.3735 97.092 25.3187 98.5542 25.3187C99.6753 25.3187 100.602 25.0451 101.357 24.5228C102.04 24.672 102.795 24.8212 103.551 25.0202C103.429 25.7913 103.38 26.5374 103.38 27.2339C103.38 31.2881 106.207 34.7205 111.3 34.7205C115.273 34.7205 118.027 33.2281 120.366 31.3378C121.512 33.2281 124.363 34.7702 128.116 34.7702C133.258 34.7702 136.183 32.0342 136.183 28.4277C136.183 25.1694 133.551 23.9507 130.846 22.9558C128.652 22.135 126.8 21.7122 126.8 20.1203C126.8 18.827 127.799 18.23 129.53 18.23C130.651 18.23 131.479 18.4788 131.942 18.6031C132.381 19.7473 133.307 20.9909 134.867 20.9909C136.207 20.9909 136.792 19.9214 136.792 18.9265C136.792 16.1159 132.21 15.8174 132.21 9.79831C132.21 6.04257 134.282 2.95839 138.595 2.95839C141.593 2.95839 143.543 4.89843 143.543 8.00749C143.543 10.5942 142.007 15.1707 142.007 15.1707C142.007 15.1707 139.473 15.1707 139.4 15.1707C138.888 15.1707 138.595 15.3697 138.498 15.8672C138.327 16.5636 138.035 17.7575 137.962 18.0808C137.864 18.5036 138.108 18.827 138.571 18.827C138.668 18.827 141.106 18.827 141.106 18.827C141.106 18.827 138.474 28.7013 138.474 30.517C138.474 32.9296 139.814 34.7453 142.738 34.7453C146.881 34.7453 149.44 32.0094 150.586 28.0298C150.683 27.7313 150.513 27.4826 150.196 27.4826C149.66 27.4826 148.855 27.4826 148.612 27.4826C148.295 27.4826 148.124 27.6567 148.027 27.98C147.661 29.3978 146.784 30.8901 145.054 30.8901C144.054 30.8901 143.469 30.2434 143.469 29.149C143.469 28.2039 144.079 25.9654 144.834 22.9558C145.2 21.3888 145.858 18.7026 145.858 18.7026ZM113.274 18.5534C114.737 18.5534 115.419 19.5483 115.419 20.7173C115.419 22.7071 113.908 23.9258 111.52 23.9258C110.667 23.9258 109.473 23.7268 108.766 23.4781C109.083 21.6624 110.399 18.5534 113.274 18.5534ZM78.9116 18.5534C80.52 18.5534 81.0562 19.5483 81.0562 20.7173C81.0562 22.7071 79.5452 23.9258 77.1569 23.9258C76.3039 23.9258 75.1098 23.7268 74.403 23.4781C74.7198 21.6624 75.8652 18.5534 78.9116 18.5534Z" fill="#080A28" fill-opacity="0.3"/>
<path d="M15.6703 0C5.26404 0 0 7.63584 0 13.9783C0 17.8335 1.43786 21.2659 4.48418 22.5344C4.99597 22.7334 5.43464 22.5344 5.58086 21.9624C5.67834 21.5644 5.92205 20.5695 6.01953 20.1716C6.16575 19.5995 6.11701 19.4005 5.70271 18.9279C4.82537 17.8584 4.26485 16.4904 4.26485 14.5255C4.26485 8.85459 8.40785 3.80548 15.061 3.80548C20.9587 3.80548 24.2 7.48661 24.2 12.3865C24.2 18.8533 21.3974 24.3004 17.2544 24.3004C14.9635 24.3004 13.2332 22.3603 13.7937 19.9974C14.4517 17.162 15.719 14.1027 15.719 12.0631C15.719 10.2226 14.7442 8.70536 12.7702 8.70536C10.4306 8.70536 8.5297 11.1926 8.5297 14.5006C8.5297 16.6148 9.23645 18.0325 9.23645 18.0325C9.23645 18.0325 6.82376 28.4292 6.40946 30.2449C5.58086 33.8763 6.28761 38.3036 6.33635 38.7513C6.36072 39.0249 6.70191 39.0746 6.84813 38.8756C7.06746 38.5772 9.87008 35.0702 10.8205 31.5383C11.0886 30.5434 12.3559 25.3948 12.3559 25.3948C13.1114 26.8871 15.3535 28.1805 17.7174 28.1805C24.7605 28.1805 29.5615 21.6142 29.5615 12.8342C29.5615 6.19324 24.0538 0 15.6703 0Z" fill="#080A28" fill-opacity="0.3"/>
</g>
<defs>
<clipPath id="clip0_1_3082">
<rect width="151" height="39" fill="white"/>
</clipPath>
</defs>
</svg>
