<svg width="336" height="39" viewBox="0 0 336 39" fill="none" xmlns="http://www.w3.org/2000/svg">
<g clip-path="url(#clip0_1_3128)">
<path d="M51.0954 0H1.67376C0.730369 0 0 0.782407 0 1.71528C0 2.16667 0.182592 2.58796 0.517344 2.88889L11.2599 13.5718C12.2032 14.5046 13.5118 15.0764 14.8508 15.0764H49.6955C52.1605 15.0764 54.2299 17.0023 54.2299 19.4398C54.2299 21.8773 52.2822 23.9236 49.8172 23.9236H25.7759C24.8325 23.9236 24.1022 24.706 24.1022 25.6389C24.1022 26.0903 24.2848 26.5116 24.6195 26.8125L35.3316 37.4954C36.275 38.4282 37.5836 39 38.9226 39H49.7868C63.9681 39 74.6498 24.044 66.7679 9.26852C63.6334 3.55093 57.6383 0 51.0954 0Z" fill="#080A28" fill-opacity="0.3"/>
<path d="M94.7046 5.65625L84.9664 5.71644C84.6316 5.71644 84.2969 5.98727 84.2969 6.37847V32.7396C84.2969 33.0706 84.5708 33.4016 84.9664 33.4016H94.7046C102.952 33.4016 109.16 27.2026 109.16 19.4989C109.16 11.7952 102.952 5.65625 94.7046 5.65625ZM94.7046 28.0151H90.292V10.9526H94.7046C94.8264 10.9526 94.8872 10.9526 94.9785 10.9526C99.5738 11.1331 103.225 14.9549 103.104 19.4688C103.165 24.1331 99.4216 27.9549 94.7046 28.0151Z" fill="#080A28" fill-opacity="0.3"/>
<path d="M130.28 5.02344C121.698 5.02344 115.094 11.5535 115.094 19.4678C115.094 27.3822 121.637 33.9123 130.28 33.9123C138.892 33.9123 145.526 27.3822 145.526 19.4678C145.526 11.6438 138.892 5.02344 130.28 5.02344ZM130.28 28.6461C125.228 28.5859 121.089 24.5535 121.089 19.4979C121.089 14.4424 125.228 10.41 130.34 10.41C135.453 10.41 139.531 14.5026 139.531 19.5581C139.531 24.6137 135.362 28.6461 130.28 28.6461Z" fill="#080A28" fill-opacity="0.3"/>
<path d="M166.586 5.02344C157.974 5.02344 151.34 11.5535 151.34 19.4678C151.34 27.3822 158.004 33.9123 166.586 33.9123C175.168 33.9123 181.832 27.3822 181.832 19.4678C181.832 11.5535 175.198 5.02344 166.586 5.02344ZM166.586 28.6461C161.504 28.6461 157.335 24.5535 157.335 19.4979C157.335 14.5026 161.413 10.41 166.525 10.41C171.638 10.41 175.776 14.4424 175.776 19.4979C175.776 24.5535 171.668 28.6461 166.586 28.6461Z" fill="#080A28" fill-opacity="0.3"/>
<path d="M206.786 22.9907C209.859 21.4259 211.837 18.2963 211.776 14.8356C211.776 9.75 207.729 5.6875 202.13 5.6875H190.413C190.078 5.6875 189.744 5.95833 189.744 6.34954L189.865 32.6505C189.865 32.9815 190.139 33.3125 190.535 33.3125H195.069C195.404 33.3125 195.739 33.0417 195.739 32.6505V23.713H200.943L206.147 33.0718C206.268 33.2824 206.481 33.463 206.755 33.463H211.503C211.685 33.463 211.837 33.463 211.959 33.3426C212.233 33.1319 212.355 32.7407 212.142 32.4097L206.786 22.9907ZM205.781 14.8356C205.66 16.8218 203.986 18.3866 201.977 18.2662H195.769V10.9537H201.977C202.038 10.9537 202.16 10.9537 202.251 10.9537C204.26 11.0139 205.842 12.7292 205.781 14.7153C205.781 14.7454 205.781 14.7755 205.781 14.8356Z" fill="#080A28" fill-opacity="0.3"/>
<path d="M231.831 5.75L222.154 5.81018C221.819 5.81018 221.484 6.08102 221.484 6.47222V32.8935C221.484 33.2245 221.758 33.5555 222.154 33.5555H231.831C240.078 33.5555 246.286 27.4166 246.286 19.6527C246.286 11.9189 240.048 5.75 231.831 5.75ZM231.892 28.199H227.479V11.1365H231.892C231.953 11.1365 232.075 11.1365 232.166 11.1365C236.822 11.3171 240.413 15.1388 240.291 19.6527C240.352 24.3171 236.579 28.1388 231.892 28.199Z" fill="#080A28" fill-opacity="0.3"/>
<path d="M268.015 6.14039C267.954 5.86956 267.68 5.689 267.345 5.689H261.898C261.624 5.62882 261.35 5.86956 261.229 6.14039L250.76 32.4714C250.699 32.5918 250.699 32.6821 250.699 32.8025C250.76 33.1937 251.095 33.4645 251.49 33.4043H256.299C256.572 33.4043 256.846 33.1937 256.968 32.8927L259.22 26.814V26.8742H270.084L272.336 32.9529C272.397 33.2839 272.671 33.4645 273.006 33.4645H277.814C277.936 33.4645 278.027 33.4645 278.149 33.4043C278.484 33.2238 278.666 32.8025 278.483 32.4714L268.015 6.14039ZM261.168 21.6983L264.576 12.5502L267.984 21.6983H261.168Z" fill="#080A28" fill-opacity="0.3"/>
<path d="M290.078 13.1178C290.078 11.5229 291.874 10.1386 294.278 10.1386C296.012 10.1988 297.625 10.8007 298.934 11.9743C299.208 12.2451 299.664 12.2451 299.938 11.9743L302.616 9.3261C302.677 9.26592 302.677 9.26592 302.677 9.26592C302.89 8.99508 302.89 8.54369 302.616 8.27286C300.212 6.10619 297.138 4.96268 293.882 4.99277C287.887 4.99277 284.083 8.75434 284.083 13.1479C284.083 23.1085 298.264 20.1294 298.203 25.2752C298.203 27.2613 296.256 28.8863 293.213 28.8863C290.961 28.8261 288.739 27.9535 287.096 26.3886C286.822 26.1178 286.365 26.1178 286.091 26.3886L283.505 28.9465C283.444 29.0067 283.444 29.0067 283.444 29.0067C283.231 29.2775 283.231 29.7289 283.505 29.9997C286.183 32.6479 289.835 34.0923 293.639 34.0322C300.425 34.0322 304.29 30.2706 304.29 25.215C304.29 15.2845 290.078 18.2636 290.078 13.1178Z" fill="#080A28" fill-opacity="0.3"/>
<path d="M335.329 5.65625H330.795C330.399 5.65625 330.126 5.92708 330.126 6.31829V16.7303H318.075V6.31829C318.075 5.92708 317.74 5.65625 317.405 5.65625H312.871C312.475 5.65625 312.201 5.98727 312.201 6.31829V32.6192C312.201 33.0104 312.536 33.2813 312.871 33.2813H317.405C317.801 33.2813 318.075 32.9503 318.075 32.6192V22.0567H330.126V32.6493C330.126 33.0405 330.46 33.3114 330.795 33.3114H335.329C335.725 33.3114 335.999 32.9803 335.999 32.6493V6.31829C335.999 5.92708 335.664 5.65625 335.329 5.65625Z" fill="#080A28" fill-opacity="0.3"/>
</g>
<defs>
<clipPath id="clip0_1_3128">
<rect width="336" height="39" fill="white"/>
</clipPath>
</defs>
</svg>
