<svg width="136" height="45" viewBox="0 0 136 45" fill="none" xmlns="http://www.w3.org/2000/svg">
<g clip-path="url(#clip0_1_3062)">
<path d="M131.318 27.4677L135.127 30.0071C133.891 31.828 130.934 34.9522 125.821 34.9522C119.473 34.9522 114.746 30.0406 114.746 23.7924C114.746 17.1435 119.523 12.6328 125.287 12.6328C131.084 12.6328 133.924 17.2435 134.843 19.7327L135.344 21.0025L120.409 27.1837C121.545 29.4224 123.316 30.5584 125.821 30.5584C128.328 30.5584 130.065 29.3221 131.318 27.4677ZM119.607 23.4419L129.58 19.2985C129.029 17.9121 127.392 16.9265 125.437 16.9265C122.948 16.9265 119.49 19.1317 119.607 23.4419Z" fill="#080A28" fill-opacity="0.3"/>
<path d="M107.936 1.25418H112.747V33.9313H107.936V1.25418Z" fill="#080A28" fill-opacity="0.3"/>
<path d="M101.29 13.4985H105.935V33.3454C105.935 41.5813 101.073 44.9726 95.3263 44.9726C89.9138 44.9726 86.6562 41.3308 85.4366 38.3739L89.6965 36.6029C90.4648 38.4238 92.3193 40.5791 95.3263 40.5791C99.0183 40.5791 101.29 38.2902 101.29 34.0137V32.41H101.123C100.02 33.7463 97.9158 34.949 95.2429 34.949C89.663 34.949 84.5508 30.0876 84.5508 23.823C84.5508 17.5246 89.663 12.6133 95.2429 12.6133C97.8992 12.6133 100.02 13.7994 101.123 15.1025H101.29V13.4985ZM101.624 23.823C101.624 19.8803 99.0017 17.0068 95.6605 17.0068C92.2858 17.0068 89.4458 19.8803 89.4458 23.823C89.4458 27.7153 92.2858 30.5386 95.6605 30.5386C99.0019 30.5555 101.624 27.7153 101.624 23.823Z" fill="#080A28" fill-opacity="0.3"/>
<path d="M58.2332 23.7387C58.2332 30.1706 53.2216 34.8983 47.0737 34.8983C40.926 34.8983 35.9141 30.154 35.9141 23.7387C35.9141 17.2735 40.926 12.5625 47.0737 12.5625C53.2216 12.5625 58.2332 17.2735 58.2332 23.7387ZM53.3551 23.7387C53.3551 19.7295 50.4481 16.9726 47.0737 16.9726C43.6992 16.9726 40.7922 19.7295 40.7922 23.7387C40.7922 27.7146 43.6992 30.5047 47.0737 30.5047C50.4484 30.5047 53.3551 27.7146 53.3551 23.7387Z" fill="#080A28" fill-opacity="0.3"/>
<path d="M82.5516 23.7924C82.5516 30.2243 77.5397 34.9519 71.392 34.9519C65.2441 34.9519 60.2324 30.224 60.2324 23.7924C60.2324 17.3272 65.2441 12.6328 71.392 12.6328C77.5397 12.6328 82.5516 17.3106 82.5516 23.7924ZM77.6566 23.7924C77.6566 19.7831 74.7498 17.0263 71.3751 17.0263C68.0007 17.0263 65.0936 19.7831 65.0936 23.7924C65.0936 27.7683 68.0007 30.5584 71.3751 30.5584C74.7665 30.5584 77.6566 27.7517 77.6566 23.7924Z" fill="#080A28" fill-opacity="0.3"/>
<path d="M17.6583 30.0544C10.6584 30.0544 5.179 24.4077 5.179 17.4078C5.179 10.4081 10.6584 4.76145 17.6583 4.76145C21.4339 4.76145 24.1902 6.24821 26.2283 8.15279L29.5864 4.79497C26.7465 2.07192 22.9542 0 17.6583 0C8.06912 0.000268175 0 7.81891 0 17.4078C0 26.9972 8.06912 34.8156 17.6583 34.8156C22.8373 34.8156 26.7465 33.1116 29.8037 29.9375C32.9443 26.7966 33.9132 22.3862 33.9132 18.8111C33.9132 17.6918 33.7796 16.5392 33.6292 15.6872H17.6583V20.3314H29.0351C28.7009 23.2385 27.7821 25.2264 26.4289 26.5794C24.7917 28.2335 22.2025 30.0544 17.6583 30.0544Z" fill="#080A28" fill-opacity="0.3"/>
</g>
<defs>
<clipPath id="clip0_1_3062">
<rect width="136" height="45" fill="white"/>
</clipPath>
</defs>
</svg>
