<svg width="110" height="37" viewBox="0 0 110 37" fill="none" xmlns="http://www.w3.org/2000/svg">
<g clip-path="url(#clip0_1_3093)">
<mask id="mask0_1_3093" style="mask-type:luminance" maskUnits="userSpaceOnUse" x="0" y="0" width="110" height="37">
<path d="M110 0H0V37H110V0Z" fill="white"/>
</mask>
<g mask="url(#mask0_1_3093)">
<path fill-rule="evenodd" clip-rule="evenodd" d="M74.5655 0.496094L62.4824 35.2612H71.1221L82.8922 0.496094H74.5655Z" fill="#080A28" fill-opacity="0.3"/>
<path fill-rule="evenodd" clip-rule="evenodd" d="M60.1019 0.496094L46.9545 26.1354L46.8919 0.620255L38.127 0.496094V35.2612H50.5857L68.9921 0.496094H60.1019Z" fill="#080A28" fill-opacity="0.3"/>
<path fill-rule="evenodd" clip-rule="evenodd" d="M103.364 19.3066C102.55 18.1892 101.423 17.0717 99.4198 15.4576C97.5416 13.9677 96.9155 13.2227 96.6025 11.857V11.2361L96.5399 11.112C96.5399 9.55998 98.2302 8.31837 100.296 8.31837C101.799 8.31837 103.113 8.62877 104.741 9.31166L105.367 9.62206C106.056 9.93247 106.682 10.3049 107.183 10.8637L110 2.60696L109.812 2.4828C107.433 0.992869 103.552 -0.0625 100.359 -0.0625C92.7208 -0.0625 86.8984 5.09018 86.8984 11.7949C86.8984 13.9056 87.5871 15.8301 88.9018 17.5684C89.5905 18.4996 91.4687 20.2378 92.9087 21.2932L94.286 22.2865C95.2251 22.9694 95.7886 23.9627 95.7886 24.8318C95.7886 26.7563 94.1608 28.06 91.7817 28.06C89.1523 28.06 84.895 26.57 83.142 25.0801L83.0168 24.9559L82.8916 24.8318L80.0117 33.3368L80.1369 33.5231C83.3924 35.5717 87.9001 36.8754 91.7817 36.8754C99.1693 36.8754 104.991 31.4123 104.991 24.5835C104.991 22.5969 104.428 20.8586 103.364 19.3066Z" fill="#080A28" fill-opacity="0.3"/>
<path fill-rule="evenodd" clip-rule="evenodd" d="M106.682 33.9555C106.682 33.3347 106.244 33.1484 105.555 33.1484H104.553V35.88H105.117V34.7625H105.367L105.993 35.88H106.682L105.993 34.7004C106.369 34.6384 106.682 34.4521 106.682 33.9555ZM105.618 34.2038H105.117V33.583H105.555C105.805 33.583 106.056 33.583 106.056 33.8934C106.056 34.2038 105.868 34.2038 105.618 34.2038Z" fill="#080A28" fill-opacity="0.3"/>
<path fill-rule="evenodd" clip-rule="evenodd" d="M105.555 31.9688C104.178 31.9688 102.988 32.9 102.988 34.4521C102.988 36.0662 104.178 36.9353 105.555 36.9353C106.87 36.9353 108.122 36.0041 108.122 34.4521C108.059 32.9 106.87 31.9688 105.555 31.9688ZM105.555 36.4386C104.553 36.4386 103.739 35.6316 103.739 34.5141C103.739 33.3967 104.553 32.5896 105.555 32.5896C106.557 32.5896 107.371 33.3346 107.371 34.5141C107.371 35.6937 106.494 36.4386 105.555 36.4386Z" fill="#080A28" fill-opacity="0.3"/>
<path fill-rule="evenodd" clip-rule="evenodd" d="M23.2271 0.496094H17.9055L0 35.1371H8.70233L13.2726 26.4458H22.6636V34.8887L22.7888 35.1991H31.4912V0.496094H23.2271ZM16.2151 19.9273L22.601 8.31824L22.6636 19.9273H16.2151Z" fill="#080A28" fill-opacity="0.3"/>
</g>
</g>
<defs>
<clipPath id="clip0_1_3093">
<rect width="110" height="37" fill="white"/>
</clipPath>
</defs>
</svg>
