<svg width="134" height="47" viewBox="0 0 134 47" fill="none" xmlns="http://www.w3.org/2000/svg">
<g clip-path="url(#clip0_1_3104)">
<mask id="mask0_1_3104" style="mask-type:luminance" maskUnits="userSpaceOnUse" x="0" y="0" width="134" height="47">
<path d="M134 0H0V47H134V0Z" fill="white"/>
</mask>
<g mask="url(#mask0_1_3104)">
<path d="M7.62109 17.173C8.4678 16.3314 9.15772 15.7393 9.84763 15.3029C10.5376 14.8666 11.3843 14.6484 12.4192 14.6484C14.0185 14.6484 15.1788 15.2094 15.8687 16.3003C16.5586 17.3911 16.9036 18.8248 16.9036 20.6325V32.289C16.9036 32.7877 16.6527 33.0993 16.151 33.224C15.6492 33.3487 14.9907 33.4733 14.1439 33.5357V34.0344H23.6459V33.6292C23.3637 33.598 23.0501 33.5668 22.7365 33.5045C22.4229 33.4733 22.1093 33.411 21.8271 33.3175C21.5448 33.2552 21.294 33.1305 21.1058 32.9747C20.9176 32.8188 20.7922 32.6318 20.7922 32.4137V18.8248C20.7922 16.7366 20.3218 15.0224 19.3496 13.6822C18.3775 12.3421 16.9977 11.6875 15.2102 11.6875C14.3635 11.6875 13.5795 11.8434 12.7955 12.1862C12.0115 12.4979 11.3216 12.9031 10.663 13.4017C10.0045 13.9004 9.43995 14.4302 8.90684 15.0536C8.40508 15.6458 7.96605 16.2068 7.62109 16.7366" fill="#080A28" fill-opacity="0.3"/>
<path d="M6.4601 18.0146V32.3515C6.52282 32.6631 6.6169 32.8813 6.77369 33.0371C6.93049 33.1618 7.11865 33.2865 7.33817 33.3488C7.55769 33.4111 7.80857 33.4423 8.0908 33.4735C8.37304 33.4735 8.65528 33.5358 8.96887 33.5981V34.0657H0V33.5981C0.721273 33.5358 1.31711 33.4111 1.85022 33.193C2.35198 32.9748 2.60286 32.632 2.60286 32.1333V16.2381C2.60286 15.9887 2.5715 15.8017 2.54014 15.6771C2.50878 15.5524 2.35198 15.4277 2.13246 15.2719C1.85022 15.116 1.53663 14.929 1.16031 14.742C0.783992 14.555 0.407676 14.368 0.0313597 14.2122V13.9317L6.11514 11.75H6.42874L6.4601 18.0146Z" fill="#080A28" fill-opacity="0.3"/>
<path d="M118.008 17.173C118.854 16.3314 119.544 15.7393 120.234 15.3029C120.924 14.8666 121.771 14.6484 122.806 14.6484C124.405 14.6484 125.565 15.2094 126.255 16.3003C126.945 17.3911 127.29 18.8248 127.29 20.6325V32.289C127.29 32.7877 127.039 33.0993 126.537 33.224C126.036 33.3487 125.377 33.4733 124.53 33.5357V34.0344H134.032V33.6292C133.75 33.598 133.437 33.5668 133.123 33.5045C132.809 33.4733 132.496 33.411 132.214 33.3175C131.931 33.2552 131.68 33.1305 131.492 32.9747C131.304 32.8188 131.179 32.6318 131.179 32.4137V18.8248C131.179 16.7366 130.708 15.0224 129.736 13.6822C128.764 12.3421 127.384 11.6875 125.597 11.6875C124.75 11.6875 123.966 11.8434 123.182 12.1862C122.398 12.4979 121.708 12.9031 121.049 13.4017C120.391 13.9004 119.826 14.4302 119.293 15.0536C118.792 15.6458 118.353 16.2068 118.008 16.7366" fill="#080A28" fill-opacity="0.3"/>
<path d="M116.847 18.0146V32.3515C116.91 32.6631 117.004 32.8813 117.161 33.0371C117.318 33.1618 117.506 33.2865 117.725 33.3488C117.945 33.4111 118.196 33.4423 118.478 33.4735C118.76 33.4735 119.042 33.5358 119.356 33.5981V34.0657H110.387V33.5981C111.108 33.5358 111.704 33.4111 112.237 33.193C112.739 32.9748 112.99 32.632 112.99 32.1333V16.2381C112.99 15.9887 112.959 15.8017 112.927 15.6771C112.865 15.5524 112.739 15.4277 112.52 15.2719C112.237 15.116 111.924 14.929 111.547 14.742C111.171 14.555 110.795 14.368 110.419 14.2122V13.9317L116.502 11.75H116.816L116.847 18.0146Z" fill="#080A28" fill-opacity="0.3"/>
<path d="M24.8047 34.0333V33.5658C25.181 33.5347 25.5573 33.5035 25.9337 33.4412C26.31 33.3788 26.6549 33.3165 26.9372 33.1918C27.2508 33.0983 27.5016 32.9425 27.6898 32.7555C27.9093 32.5685 28.0034 32.3192 28.0034 32.0386V15.9253C28.0034 15.6759 27.972 15.4577 27.9407 15.2707C27.9093 15.0837 27.7525 14.8967 27.533 14.7409C27.2508 14.5539 26.9058 14.3669 26.5295 14.1799C26.1218 13.9929 25.7141 13.8059 25.2751 13.6501V13.3696L31.6725 11.3125H31.9547V32.3503C32.0174 32.662 32.1429 32.8802 32.3624 33.036C32.5819 33.1918 32.8014 33.2853 33.0837 33.3477C33.3659 33.41 33.6795 33.4412 33.9931 33.4723C34.3381 33.4723 34.6517 33.5347 34.9653 33.597V34.0645H24.8047V34.0333Z" fill="#080A28" fill-opacity="0.3"/>
<path d="M31.5481 6.63733C31.0777 7.10484 30.4818 7.35417 29.7919 7.35417C29.1334 7.35417 28.5375 7.10484 28.0358 6.63733C27.534 6.13866 27.3145 5.57765 27.3145 4.89197C27.3145 4.2063 27.5654 3.61412 28.0358 3.14661C28.5062 2.67911 29.102 2.46094 29.7919 2.46094C30.4818 2.46094 31.0777 2.67911 31.5481 3.14661C32.0185 3.61412 32.2693 4.17513 32.2693 4.89197C32.238 5.57765 32.0185 6.13866 31.5481 6.63733Z" fill="#080A28" fill-opacity="0.3"/>
<path d="M93.1065 18.4187C93.1692 18.0447 93.3572 17.5148 93.6395 16.7979C93.9217 16.0812 94.3295 15.3955 94.8312 14.7098C95.3644 14.0241 95.9601 13.4007 96.6814 12.9021C97.4026 12.3723 98.1867 12.1228 99.0648 12.1228C100.413 12.1228 101.51 12.528 102.294 13.3695C103.11 14.211 103.486 15.2084 103.486 16.3616C103.486 16.7979 103.423 17.1409 103.329 17.359C103.204 17.5772 103.047 17.8265 102.827 18.0759C102.514 18.2005 102.138 18.294 101.73 18.3252C101.322 18.3564 100.883 18.3563 100.413 18.3563C99.692 18.3563 99.0334 18.3564 98.4376 18.3875C97.8418 18.3875 97.2459 18.4187 96.7128 18.4187C96.1484 18.4187 95.8347 18.4498 95.2702 18.4498L95.0508 19.1044H108.19C108.096 17.7954 107.782 16.6421 107.281 15.676C106.779 14.7098 106.12 13.8994 105.305 13.2449C104.49 12.5904 103.549 12.1228 102.451 11.8112C101.354 11.4995 100.193 11.3438 98.9706 11.3438C97.4654 11.3438 96.0856 11.6553 94.8312 12.3099C93.5769 12.9644 92.5419 13.8059 91.6638 14.8344C90.7857 15.8629 90.1273 17.0474 89.6569 18.3252C89.1865 19.6342 88.9355 20.9431 88.9355 22.2522C88.9355 23.8728 89.1864 25.4312 89.6882 26.8961C90.1899 28.361 90.9113 29.6388 91.8521 30.6984C92.7929 31.7893 93.9218 32.6308 95.2389 33.223C96.556 33.8152 98.0299 34.1269 99.6292 34.1269C100.915 34.1269 102.106 33.8776 103.172 33.41C104.239 32.9425 105.148 32.3503 105.901 31.6335C106.653 30.9166 107.249 30.1063 107.688 29.2649C108.127 28.3922 108.409 27.6129 108.535 26.9272L108.159 26.8337C107.782 27.9869 106.998 28.9844 105.807 29.7635C104.615 30.5739 103.235 30.979 101.667 30.979C100.225 30.979 98.9394 30.6985 97.8418 30.1687C96.7442 29.6389 95.8348 28.8909 95.0821 27.9869C94.3609 27.0519 93.7964 25.9922 93.4201 24.7767C93.0437 23.5612 92.8556 22.3145 92.8556 20.9743C92.8556 20.6315 92.8869 20.2886 92.9183 19.977C92.9497 19.6341 92.9809 19.3537 92.9809 19.1044L93.1065 18.4187Z" fill="#080A28" fill-opacity="0.3"/>
<path d="M40.579 18.4188C40.6418 18.0448 40.8299 17.5151 41.1122 16.7982C41.3944 16.0814 41.8021 15.3957 42.3038 14.71C42.8369 14.0244 43.4328 13.401 44.154 12.9023C44.8753 12.3725 45.6593 12.1231 46.5374 12.1231C47.8858 12.1231 48.9834 12.5283 49.7674 13.3699C50.5828 14.2114 50.9591 15.2087 50.9591 16.3619C50.9591 16.7982 50.8964 17.141 50.8023 17.3591C50.6769 17.5774 50.5201 17.8267 50.3005 18.076C49.9869 18.2007 49.6106 18.2943 49.203 18.3253C48.7953 18.3565 48.3562 18.3878 47.8858 18.3878C47.1646 18.3878 46.506 18.3878 45.9102 18.4188C45.3144 18.4188 44.7499 18.4501 44.1854 18.4813C43.6209 18.4813 43.3073 18.5124 42.7429 18.5124L42.5233 19.1669H55.6631C55.569 17.8579 55.2554 16.7046 54.7536 15.7386C54.2519 14.7724 53.5933 13.962 52.778 13.3075C51.9626 12.653 51.0218 12.1854 49.9242 11.8737C48.8266 11.5621 47.6663 11.4062 46.4433 11.4062C44.938 11.4062 43.5582 11.7179 42.3038 12.3724C41.0494 13.0269 40.0146 13.8684 39.1365 14.8969C38.2584 15.9255 37.5999 17.1099 37.1295 18.3878C36.6591 19.6968 36.4082 21.0058 36.4082 22.3148C36.4082 23.9355 36.6591 25.4939 37.1608 26.9587C37.6626 28.4235 38.3839 29.7013 39.3247 30.761C40.2654 31.8518 41.3944 32.6934 42.7115 33.2855C44.0286 33.8777 45.5025 34.1894 47.1019 34.1894C48.3876 34.1894 49.5793 33.9401 50.6455 33.4725C51.7117 33.005 52.6212 32.413 53.3738 31.6961C54.1264 30.9792 54.7223 30.1688 55.1613 29.3274C55.6003 28.4547 55.8826 27.6756 56.008 26.9899L55.6317 26.8964C55.2554 28.0496 54.4714 29.0469 53.2797 29.826C52.088 30.6364 50.7082 31.0415 49.1402 31.0415C47.6977 31.0415 46.4119 30.7611 45.3144 30.2313C44.2168 29.7014 43.3073 28.9534 42.5547 28.0496C41.8334 27.1145 41.269 26.0549 40.8926 24.8393C40.5163 23.6238 40.3282 22.3771 40.3282 21.037C40.3282 20.6941 40.3595 20.3513 40.3909 20.0396C40.4222 19.6968 40.4536 19.4163 40.4536 19.1669L40.579 18.4188Z" fill="#080A28" fill-opacity="0.3"/>
<path d="M56.918 34.0345V33.5046C58.3606 33.4111 59.3327 33.2553 59.8031 33.0683C60.2735 32.8501 60.5244 32.5073 60.5244 32.0086V4.95557C60.5244 4.70623 60.4931 4.51923 60.4617 4.39456C60.399 4.26989 60.2735 4.11406 60.054 3.95822C59.7718 3.80239 59.3327 3.55305 58.7683 3.24138C58.2038 2.89854 57.7334 2.68037 57.3571 2.52454V2.21286L64.1308 0H64.4757V32.2268C64.4757 32.5385 64.5385 32.7878 64.6953 32.9436C64.8521 33.0995 65.0402 33.2241 65.3225 33.2865C65.6047 33.3488 65.981 33.38 66.42 33.4111C66.8591 33.4423 67.3922 33.4735 67.988 33.5358V34.0657H56.918V34.0345Z" fill="#080A28" fill-opacity="0.3"/>
<path d="M85.392 30.2616C84.8902 31.1655 84.263 31.8823 83.4163 32.4433C82.601 33.0043 81.6602 33.4095 80.5939 33.6588C79.5277 33.9082 78.4301 34.0328 77.2698 34.0328C75.89 34.0328 74.5729 33.9082 73.3498 33.6588C72.1268 33.4095 70.9979 33.0355 69.9316 32.568V26.3657H70.2766C70.5275 27.1137 70.8411 27.9241 71.2174 28.7344C71.5937 29.5759 72.0641 30.3239 72.5972 31.0408C73.1303 31.7576 73.7889 32.3186 74.5415 32.7862C75.2941 33.2537 76.2036 33.4718 77.2384 33.4718C78.7437 33.4718 79.9667 33.0355 80.8762 32.1628C81.7856 31.2901 82.2247 29.9811 82.2247 28.1734C82.2247 27.2072 81.911 26.3969 81.3152 25.7424C80.688 25.0879 79.8413 24.6827 78.7751 24.4334C77.9284 24.2775 77.113 24.0905 76.2977 23.9035C75.5137 23.7165 74.7924 23.4984 74.1652 23.2802C72.9735 22.875 72.0014 22.1582 71.2487 21.1608C70.4961 20.1635 70.1198 18.948 70.1198 17.5454C70.1198 16.5793 70.3393 15.7066 70.747 14.8962C71.1547 14.1171 71.7191 13.4314 72.409 12.8704C73.099 12.3094 73.9143 11.873 74.8238 11.5613C75.7332 11.2497 76.7053 11.125 77.7716 11.125C79.0887 11.125 80.249 11.2497 81.2839 11.4678C82.2874 11.7172 83.2595 11.9977 84.1689 12.3405L84.7334 18.1688L84.3571 18.2623C83.9181 17.3273 83.479 16.4546 83.04 15.6442C82.601 14.8339 82.0992 14.1482 81.5661 13.5872C81.033 12.995 80.4371 12.5587 79.7472 12.247C79.0573 11.9354 78.2733 11.7795 77.3952 11.7795C76.8621 11.7795 76.329 11.873 75.7959 12.06C75.2628 12.247 74.8237 12.5275 74.4161 12.8704C74.0084 13.2444 73.6948 13.6807 73.4439 14.2417C73.193 14.8027 73.0676 15.4261 73.0676 16.1429C73.0676 17.2961 73.4126 18.1376 74.0711 18.6363C74.7297 19.135 75.5764 19.509 76.5799 19.7583C77.2698 19.9141 78.0224 20.07 78.8378 20.257C79.6531 20.444 80.3744 20.5998 80.9703 20.7556C82.3815 21.0985 83.6045 21.8153 84.5766 22.9062C85.5801 23.997 86.0819 25.3684 86.0819 26.9579C86.1133 28.2981 85.8937 29.3578 85.392 30.2616Z" fill="#080A28" fill-opacity="0.3"/>
<path d="M6.64775 44.603C6.64775 45.9432 5.55016 47.0028 4.23305 47.0028C2.88459 47.0028 1.81836 45.912 1.81836 44.603C1.81836 43.2628 2.91595 42.2031 4.23305 42.2031C5.55016 42.2031 6.64775 43.2628 6.64775 44.603Z" fill="#080A28" fill-opacity="0.3"/>
<path d="M22.2649 44.603C22.2649 45.9432 21.1673 47.0028 19.8502 47.0028C18.5017 47.0028 17.4355 45.912 17.4355 44.603C17.4355 43.2628 18.5331 42.2031 19.8502 42.2031C21.1987 42.2031 22.2649 43.2628 22.2649 44.603Z" fill="#080A28" fill-opacity="0.3"/>
<path d="M37.9134 44.603C37.9134 45.9432 36.8158 47.0028 35.4987 47.0028C34.1502 47.0028 33.084 45.912 33.084 44.603C33.084 43.2628 34.1816 42.2031 35.4987 42.2031C36.8471 42.2031 37.9134 43.2628 37.9134 44.603Z" fill="#080A28" fill-opacity="0.3"/>
<path d="M53.5618 44.603C53.5618 45.9432 52.4642 47.0028 51.1471 47.0028C49.7986 47.0028 48.7324 45.912 48.7324 44.603C48.7324 43.2628 49.83 42.2031 51.1471 42.2031C52.4642 42.2031 53.5618 43.2628 53.5618 44.603Z" fill="#080A28" fill-opacity="0.3"/>
<path d="M69.179 44.603C69.179 45.9432 68.0814 47.0028 66.7643 47.0028C65.4158 47.0028 64.3496 45.912 64.3496 44.603C64.3496 43.2628 65.4472 42.2031 66.7643 42.2031C68.1128 42.2031 69.179 43.2628 69.179 44.603Z" fill="#080A28" fill-opacity="0.3"/>
<path d="M84.8275 44.603C84.8275 45.9432 83.7299 47.0028 82.4128 47.0028C81.0643 47.0028 79.998 45.912 79.998 44.603C79.998 43.2628 81.0957 42.2031 82.4128 42.2031C83.7613 42.2031 84.8275 43.2628 84.8275 44.603Z" fill="#080A28" fill-opacity="0.3"/>
<path d="M100.475 44.603C100.475 45.9432 99.3783 47.0028 98.0612 47.0028C96.7127 47.0028 95.6465 45.912 95.6465 44.603C95.6465 43.2628 96.7441 42.2031 98.0612 42.2031C99.3783 42.2031 100.475 43.2628 100.475 44.603Z" fill="#080A28" fill-opacity="0.3"/>
<path d="M131.741 44.603C131.741 45.9432 130.644 47.0028 129.326 47.0028C127.978 47.0028 126.912 45.912 126.912 44.603C126.912 43.2628 128.009 42.2031 129.326 42.2031C130.675 42.2031 131.741 43.2628 131.741 44.603Z" fill="#080A28" fill-opacity="0.3"/>
<path d="M116.094 44.603C116.094 45.9432 114.996 47.0028 113.679 47.0028C112.33 47.0028 111.264 45.912 111.264 44.603C111.264 43.2628 112.362 42.2031 113.679 42.2031C115.027 42.2031 116.094 43.2628 116.094 44.603Z" fill="#080A28" fill-opacity="0.3"/>
</g>
</g>
<defs>
<clipPath id="clip0_1_3104">
<rect width="134" height="47" fill="white"/>
</clipPath>
</defs>
</svg>
