<svg width="129" height="37" viewBox="0 0 129 37" fill="none" xmlns="http://www.w3.org/2000/svg">
<g clip-path="url(#clip0_1_3086)">
<path fill-rule="evenodd" clip-rule="evenodd" d="M123.761 26.8146H129.001L115.97 0H112.316L99.3535 26.8146H104.594L106.455 22.7266H118.383L116.935 19.1929H108.11L114.177 6.09738L123.761 26.8146Z" fill="#080A28" fill-opacity="0.3"/>
<path fill-rule="evenodd" clip-rule="evenodd" d="M13.031 0.207031L0 27.0217H5.23998L7.1705 22.9337H19.0294L17.5815 19.3999H8.82523L14.8236 6.30441L24.4073 27.0217H29.6472L16.6162 0.207031H13.031Z" fill="#080A28" fill-opacity="0.3"/>
<path fill-rule="evenodd" clip-rule="evenodd" d="M62.466 0.207031L49.5039 27.0217H54.7439L56.6055 22.9337H68.5333L67.0854 19.3999H58.2602L64.3276 6.30441L73.9112 27.0217H79.1512L66.1202 0.207031H62.466Z" fill="#080A28" fill-opacity="0.3"/>
<path fill-rule="evenodd" clip-rule="evenodd" d="M49.1593 0.140625L39.5756 21.2043L29.992 0.140625H24.752L37.783 26.886H37.9899H41.1614H41.3683L54.3993 0.140625H49.1593Z" fill="#080A28" fill-opacity="0.3"/>
<path fill-rule="evenodd" clip-rule="evenodd" d="M99.1456 0.140625L89.1483 21.6201L79.9783 0.140625H74.7383L86.5283 26.886L81.3573 37.0021H86.3904L104.386 0.140625H99.1456Z" fill="#080A28" fill-opacity="0.3"/>
</g>
<defs>
<clipPath id="clip0_1_3086">
<rect width="129" height="37" fill="white"/>
</clipPath>
</defs>
</svg>
